<svg aria-hidden="true" style="position: absolute; width: 0; height: 0; overflow: hidden;" version="1.1" xmlns="http://www.w3.org/2000/svg" xmlns:xlink="http://www.w3.org/1999/xlink">
<defs>
<symbol id="icon-address-book3" viewBox="0 0 16 16">
<title>address-book3</title>
<path d="M13.5 1h-11c-0.276 0-0.5 0.224-0.5 0.5v1.5h-1c-0.552 0-1 0.448-1 1s0.448 1 1 1h1v1h-1c-0.552 0-1 0.448-1 1s0.448 1 1 1h1v1h-1c-0.552 0-1 0.448-1 1s0.448 1 1 1h1v1h-1c-0.552 0-1 0.448-1 1s0.448 1 1 1h1v1.5c0 0.276 0.224 0.5 0.5 0.5h11c0.827 0 1.5-0.673 1.5-1.5v-12c0-0.827-0.673-1.5-1.5-1.5zM5 15h-2v-1c0.552 0 1-0.448 1-1s-0.448-1-1-1v-1c0.552 0 1-0.448 1-1s-0.448-1-1-1v-1c0.552 0 1-0.448 1-1s-0.448-1-1-1v-1c0.552 0 1-0.448 1-1s-0.448-1-1-1v-1h2v13zM12 6h-1.611c-0.251 0.693-0.389 1.575-0.389 2.5s0.138 1.807 0.389 2.5h1.611v3h-1c-0.528 0-1.035-0.218-1.468-0.629-0.334-0.317-0.623-0.749-0.86-1.283-0.433-0.975-0.672-2.249-0.672-3.588s0.239-2.613 0.672-3.588c0.237-0.534 0.527-0.965 0.86-1.283 0.433-0.412 0.94-0.629 1.468-0.629h1v3z"></path>
</symbol>
</defs>
</svg>