<svg aria-hidden="true" style="position: absolute; width: 0; height: 0; overflow: hidden;" version="1.1" xmlns="http://www.w3.org/2000/svg" xmlns:xlink="http://www.w3.org/1999/xlink">
<defs>
<symbol id="icon-address-book2" viewBox="0 0 16 16">
<title>address-book2</title>
<path d="M14.5 8h0.5c0.552 0 1-0.448 1-1v-2h-1.5v3z"></path>
<path d="M14.5 1v3h0.5c0.552 0 1-0.448 1-1v-2h-1.5z"></path>
<path d="M14 9v-9h-13c-0.55 0-1 0.45-1 1v14c0 0.55 0.45 1 1 1h13v-7zM8 4.005c1.102 0 1.995 0.893 1.995 1.995s-0.893 1.995-1.995 1.995-1.995-0.893-1.995-1.995 0.893-1.995 1.995-1.995zM3 15h-1v-14h1v14zM11 12h-6v-1c0-1.105 0.895-2 2-2h2c1.105 0 2 0.895 2 2v1z"></path>
<path d="M14.5 12h0.5c0.552 0 1-0.448 1-1v-2h-1.5v3z"></path>
</symbol>
</defs>
</svg>