<svg aria-hidden="true" style="position: absolute; width: 0; height: 0; overflow: hidden;" version="1.1" xmlns="http://www.w3.org/2000/svg" xmlns:xlink="http://www.w3.org/1999/xlink">
<defs>
<symbol id="icon-alarm2" viewBox="0 0 16 16">
<title>alarm2</title>
<path d="M8 3c-0.552 0-1-0.448-1-1v-1c0-0.552 0.448-1 1-1s1 0.448 1 1v1c0 0.552-0.448 1-1 1z"></path>
<path d="M12.5 11h-0.5v-3c0-2.209-1.791-4-4-4s-4 1.791-4 4v3h-0.5c-0.276 0-0.5 0.224-0.5 0.5v2c0 0.276 0.224 0.5 0.5 0.5h9c0.276 0 0.5-0.224 0.5-0.5v-2c0-0.276-0.224-0.5-0.5-0.5z"></path>
<path d="M13.5 16h-11c-0.276 0-0.5-0.224-0.5-0.5s0.224-0.5 0.5-0.5h11c0.276 0 0.5 0.224 0.5 0.5s-0.224 0.5-0.5 0.5z"></path>
<path d="M3 4c-0.256 0-0.512-0.098-0.707-0.293l-1-1c-0.391-0.391-0.391-1.024 0-1.414s1.024-0.391 1.414 0l1 1c0.391 0.391 0.391 1.024 0 1.414-0.195 0.195-0.451 0.293-0.707 0.293z"></path>
<path d="M2 9h-1c-0.552 0-1-0.448-1-1s0.448-1 1-1h1c0.552 0 1 0.448 1 1s-0.448 1-1 1z"></path>
<path d="M13 4c-0.256 0-0.512-0.098-0.707-0.293-0.391-0.391-0.391-1.024 0-1.414l1-1c0.39-0.391 1.024-0.391 1.414 0s0.391 1.024 0 1.414l-1 1c-0.195 0.195-0.451 0.293-0.707 0.293z"></path>
<path d="M15 9h-1c-0.552 0-1-0.448-1-1s0.448-1 1-1h1c0.552 0 1 0.448 1 1s-0.448 1-1 1z"></path>
</symbol>
</defs>
</svg>