<svg aria-hidden="true" style="position: absolute; width: 0; height: 0; overflow: hidden;" version="1.1" xmlns="http://www.w3.org/2000/svg" xmlns:xlink="http://www.w3.org/1999/xlink">
<defs>
<symbol id="icon-album" viewBox="0 0 16 16">
<title>album</title>
<path d="M14.5 4h-13c-0.275 0-0.5 0.225-0.5 0.5v11c0 0.275 0.225 0.5 0.5 0.5h13c0.275 0 0.5-0.225 0.5-0.5v-11c0-0.275-0.225-0.5-0.5-0.5zM12 12.5c0 0.828-0.895 1.5-2 1.5s-2-0.672-2-1.5 0.895-1.5 2-1.5c0.364 0 0.706 0.073 1 0.201v-2.915l-4 1.429v3.786c0 0.828-0.895 1.5-2 1.5s-2-0.672-2-1.5 0.895-1.5 2-1.5c0.364 0 0.706 0.073 1 0.201v-4.201l6-2v6.5z"></path>
<path d="M13.5 3h-11c-0.276 0-0.5-0.224-0.5-0.5s0.224-0.5 0.5-0.5h11c0.276 0 0.5 0.224 0.5 0.5s-0.224 0.5-0.5 0.5z"></path>
<path d="M12.5 1h-9c-0.276 0-0.5-0.224-0.5-0.5s0.224-0.5 0.5-0.5h9c0.276 0 0.5 0.224 0.5 0.5s-0.224 0.5-0.5 0.5z"></path>
</symbol>
</defs>
</svg>