<svg aria-hidden="true" style="position: absolute; width: 0; height: 0; overflow: hidden;" version="1.1" xmlns="http://www.w3.org/2000/svg" xmlns:xlink="http://www.w3.org/1999/xlink">
<defs>
<symbol id="icon-ammo" viewBox="0 0 16 16">
<title>ammo</title>
<path d="M3.871 3.504l-0 0c-0.044-0.077-0.098-0.15-0.164-0.215-0.391-0.391-1.024-0.391-1.414 0-0.066 0.066-0.12 0.138-0.164 0.215l-0-0c-0.793 1.215-1.129 3.516-1.129 5.508v0 6.492c0 0.276 0.224 0.5 0.5 0.5h3c0.276 0 0.5-0.224 0.5-0.5v-6.492c-0-1.992-0.336-4.293-1.129-5.508zM3 14.5c0 0.276-0.224 0.5-0.5 0.5s-0.5-0.224-0.5-0.5v-6c0-0.276 0.224-0.5 0.5-0.5s0.5 0.224 0.5 0.5v0.504c0 0 0.003 0.003 0.008 0.008h-0.008v5.488z"></path>
<path d="M8.871 3.504l-0 0c-0.044-0.077-0.098-0.15-0.164-0.215-0.39-0.391-1.024-0.391-1.414 0-0.066 0.066-0.12 0.138-0.164 0.215l-0-0c-0.793 1.215-1.129 3.516-1.129 5.508v0 6.492c0 0.276 0.224 0.5 0.5 0.5h3c0.276 0 0.5-0.224 0.5-0.5v-6.492c-0-1.992-0.336-4.293-1.129-5.508zM8 14.5c0 0.276-0.224 0.5-0.5 0.5s-0.5-0.224-0.5-0.5v-6c0-0.276 0.224-0.5 0.5-0.5s0.5 0.224 0.5 0.5v0.504c0 0 0.003 0.003 0.008 0.008h-0.008v5.488z"></path>
<path d="M13.871 3.504l-0 0c-0.044-0.077-0.098-0.15-0.164-0.215-0.39-0.391-1.024-0.391-1.414 0-0.066 0.066-0.12 0.138-0.164 0.215l-0-0c-0.793 1.215-1.129 3.516-1.129 5.508v0 6.492c0 0.276 0.224 0.5 0.5 0.5h3c0.276 0 0.5-0.224 0.5-0.5v-6.492c0-1.992-0.336-4.293-1.129-5.508zM13 14.5c0 0.276-0.224 0.5-0.5 0.5s-0.5-0.224-0.5-0.5v-6c0-0.276 0.224-0.5 0.5-0.5s0.5 0.224 0.5 0.5v0.504c0 0 0.003 0.003 0.008 0.008h-0.008v5.488z"></path>
</symbol>
</defs>
</svg>