<svg aria-hidden="true" style="position: absolute; width: 0; height: 0; overflow: hidden;" version="1.1" xmlns="http://www.w3.org/2000/svg" xmlns:xlink="http://www.w3.org/1999/xlink">
<defs>
<symbol id="icon-archive" viewBox="0 0 17 16">
<title>archive</title>
<path d="M4 1h-3c-0.55 0-1 0.45-1 1v12c0 0.55 0.45 1 1 1h3c0.55 0 1-0.45 1-1v-12c0-0.55-0.45-1-1-1zM3 12.625c0 0.206-0.169 0.375-0.375 0.375h-0.25c-0.206 0-0.375-0.169-0.375-0.375v-0.25c0-0.206 0.169-0.375 0.375-0.375h0.25c0.206 0 0.375 0.169 0.375 0.375v0.25zM4 10h-3v-5h3v5zM4 4h-3v-1h3v1zM10 1h-3c-0.55 0-1 0.45-1 1v12c0 0.55 0.45 1 1 1h3c0.55 0 1-0.45 1-1v-12c0-0.55-0.45-1-1-1zM9 12.625c0 0.206-0.169 0.375-0.375 0.375h-0.25c-0.206 0-0.375-0.169-0.375-0.375v-0.25c0-0.206 0.169-0.375 0.375-0.375h0.25c0.206 0 0.375 0.169 0.375 0.375v0.25zM10 10h-3v-5h3v5zM10 4h-3v-1h3v1zM16 1h-3c-0.55 0-1 0.45-1 1v12c0 0.55 0.45 1 1 1h3c0.55 0 1-0.45 1-1v-12c0-0.55-0.45-1-1-1zM15 12.625c0 0.206-0.169 0.375-0.375 0.375h-0.25c-0.206 0-0.375-0.169-0.375-0.375v-0.25c0-0.206 0.169-0.375 0.375-0.375h0.25c0.206 0 0.375 0.169 0.375 0.375v0.25zM16 10h-3v-5h3v5zM16 4h-3v-1h3v1z"></path>
</symbol>
</defs>
</svg>