<svg aria-hidden="true" style="position: absolute; width: 0; height: 0; overflow: hidden;" version="1.1" xmlns="http://www.w3.org/2000/svg" xmlns:xlink="http://www.w3.org/1999/xlink">
<defs>
<symbol id="icon-arrow-resize2" viewBox="0 0 16 16">
<title>arrow-resize2</title>
<path d="M0 1v6c0 0.552 0.448 1 1 1s1-0.448 1-1v-3.586l10.586 10.586h-3.586c-0.552 0-1 0.448-1 1s0.448 1 1 1h6c0.552 0 1-0.448 1-1v-6c0-0.552-0.448-1-1-1s-1 0.448-1 1v3.586l-10.586-10.586h3.586c0.552 0 1-0.448 1-1s-0.448-1-1-1h-6c-0.552 0-1 0.448-1 1z"></path>
</symbol>
</defs>
</svg>