<svg aria-hidden="true" style="position: absolute; width: 0; height: 0; overflow: hidden;" version="1.1" xmlns="http://www.w3.org/2000/svg" xmlns:xlink="http://www.w3.org/1999/xlink">
<defs>
<symbol id="icon-arrow-resize3" viewBox="0 0 16 16">
<title>arrow-resize3</title>
<path d="M11.293 5.707l1.293 1.293h-9.172l1.293-1.293c0.195-0.195 0.293-0.451 0.293-0.707s-0.098-0.512-0.293-0.707c-0.391-0.39-1.024-0.39-1.414 0l-3 3c-0.391 0.391-0.391 1.024 0 1.414l3 3c0.391 0.391 1.024 0.391 1.414 0s0.391-1.024 0-1.414l-1.293-1.293h9.172l-1.293 1.293c-0.39 0.391-0.39 1.024 0 1.414s1.024 0.391 1.414 0l3-3c0.195-0.195 0.293-0.451 0.293-0.707s-0.098-0.512-0.293-0.707l-3-3c-0.391-0.39-1.024-0.39-1.414 0s-0.39 1.024 0 1.414z"></path>
</symbol>
</defs>
</svg>