<svg aria-hidden="true" style="position: absolute; width: 0; height: 0; overflow: hidden;" version="1.1" xmlns="http://www.w3.org/2000/svg" xmlns:xlink="http://www.w3.org/1999/xlink">
<defs>
<symbol id="icon-attachment2" viewBox="0 0 16 16">
<title>attachment2</title>
<path d="M13 4h-9c-2.209 0-4 1.791-4 4s1.791 4 4 4h9v-1h-9c-1.657 0-3-1.343-3-3s1.343-3 3-3h9c1.105 0 2 0.895 2 2s-0.895 2-2 2h-7c-0.552 0-1-0.448-1-1s0.448-1 1-1h7v-1h-7c-1.105 0-2 0.895-2 2s0.895 2 2 2h7c1.657 0 3-1.343 3-3s-1.343-3-3-3z"></path>
</symbol>
</defs>
</svg>