<svg aria-hidden="true" style="position: absolute; width: 0; height: 0; overflow: hidden;" version="1.1" xmlns="http://www.w3.org/2000/svg" xmlns:xlink="http://www.w3.org/1999/xlink">
<defs>
<symbol id="icon-battery-charging" viewBox="0 0 17 16">
<title>battery-charging</title>
<path d="M16.5 7h-1v4h1c0.276 0 0.5-0.224 0.5-0.5v-3c0-0.276-0.224-0.5-0.5-0.5z"></path>
<path d="M14 4h-3.622l-0.491 1h4.113v8h-5.774l-0.813 1h6.587c0.55 0 1-0.45 1-1v-8c0-0.55-0.45-1-1-1z"></path>
<path d="M4.935 13h-3.935v-8h5.719l0.8-1h-6.519c-0.55 0-1 0.45-1 1v8c0 0.55 0.45 1 1 1h3.414l0.521-1z"></path>
<path d="M11 8h-3.7l2.7-5.5-6 7.5h3.625l-3.125 6z"></path>
</symbol>
</defs>
</svg>