<svg aria-hidden="true" style="position: absolute; width: 0; height: 0; overflow: hidden;" version="1.1" xmlns="http://www.w3.org/2000/svg" xmlns:xlink="http://www.w3.org/1999/xlink">
<defs>
<symbol id="icon-battery-6" viewBox="0 0 17 16">
<title>battery-6</title>
<path d="M2 6h11v6h-11v-6z"></path>
<path d="M14 4h-13c-0.55 0-1 0.45-1 1v8c0 0.55 0.45 1 1 1h13c0.55 0 1-0.45 1-1v-8c0-0.55-0.45-1-1-1zM14 13h-13v-8h13v8z"></path>
<path d="M16.5 7h-1v4h1c0.276 0 0.5-0.224 0.5-0.5v-3c0-0.276-0.224-0.5-0.5-0.5z"></path>
</symbol>
</defs>
</svg>