<svg aria-hidden="true" style="position: absolute; width: 0; height: 0; overflow: hidden;" version="1.1" xmlns="http://www.w3.org/2000/svg" xmlns:xlink="http://www.w3.org/1999/xlink">
<defs>
<symbol id="icon-bin5" viewBox="0 0 16 16">
<title>bin5</title>
<path d="M6 7h1v1h-1v-1z"></path>
<path d="M8 7h1v1h-1v-1z"></path>
<path d="M9 10h1v1h-1v-1z"></path>
<path d="M9 8h1v1h-1v-1z"></path>
<path d="M10 7h1v1h-1v-1z"></path>
<path d="M4 9h1v1h-1v-1z"></path>
<path d="M3 6h1v1h-1v-1z"></path>
<path d="M3 8h1v1h-1v-1z"></path>
<path d="M5 10h1v1h-1v-1z"></path>
<path d="M7 10h1v1h-1v-1z"></path>
<path d="M8 9h1v1h-1v-1z"></path>
<path d="M6 9h1v1h-1v-1z"></path>
<path d="M7 8h1v1h-1v-1z"></path>
<path d="M5 8h1v1h-1v-1z"></path>
<path d="M7 12h1v1h-1v-1z"></path>
<path d="M8 11h1v1h-1v-1z"></path>
<path d="M6 11h1v1h-1v-1z"></path>
<path d="M4 11h1v1h-1v-1z"></path>
<path d="M4 7h1v1h-1v-1z"></path>
<path d="M10 11h1v1h-1v-1z"></path>
<path d="M9 12h1v1h-1v-1z"></path>
<path d="M8 13h1v1h-1v-1z"></path>
<path d="M7.5 0c-4.142 0-7.5 1.119-7.5 2.5 0 0.098 0.017 0.194 0.050 0.288l1.943 11.212c0 1.105 2.464 2 5.504 2s5.504-0.895 5.504-2l1.95-11.21c0.033-0.095 0.050-0.192 0.050-0.29 0-1.381-3.358-2.5-7.5-2.5zM13 7h-1v1h1v1h-1v1h-1v1h1v1h-1v1h1v1h-1v-1h-1v1h-1v1h-1v-1h-1v1h-1v-1h-1v-1h-1v1h-1v-1h1v-1h-1v-1h1v-1h-1v-1h-1v-1h1v-1h-1v-1h1v-1h1v1h1v1h1v-1h1v1h1v-1h1v1h1v-1h1v-1h1v1h1v1zM12.056 3.321c-1.257 0.357-2.875 0.554-4.556 0.554s-3.299-0.197-4.556-0.554c-1.078-0.306-1.584-0.645-1.763-0.821 0.179-0.176 0.686-0.515 1.763-0.821 1.257-0.357 2.875-0.554 4.556-0.554s3.299 0.197 4.556 0.554c1.078 0.306 1.584 0.645 1.763 0.821-0.179 0.176-0.685 0.515-1.763 0.821z"></path>
<path d="M6 13h1v1h-1v-1z"></path>
<path d="M11 8h1v1h-1v-1z"></path>
<path d="M10 9h1v1h-1v-1z"></path>
<path d="M11 6h1v1h-1v-1z"></path>
<path d="M5 12h1v1h-1v-1z"></path>
</symbol>
</defs>
</svg>