<svg aria-hidden="true" style="position: absolute; width: 0; height: 0; overflow: hidden;" version="1.1" xmlns="http://www.w3.org/2000/svg" xmlns:xlink="http://www.w3.org/1999/xlink">
<defs>
<symbol id="icon-blog2" viewBox="0 0 16 16">
<title>blog2</title>
<path d="M6 3v1.5c1.469 0 2.85 0.572 3.889 1.611s1.611 2.42 1.611 3.889h1.5c0-3.866-3.134-7-7-7zM6 0v1.5c1.148 0 2.261 0.225 3.308 0.667 1.012 0.428 1.921 1.041 2.702 1.822s1.394 1.69 1.822 2.702c0.443 1.047 0.667 2.16 0.667 3.308h1.5c0-5.523-4.477-10-10-10z"></path>
<path d="M8.414 7.586c-0.781-0.781-2.047-0.781-2.828-0l-5.586 5.586v2.828h2.828l5.586-5.586c0.781-0.781 0.781-2.047 0-2.828zM2 14.5l-1-1 5-5 1 1-5 5z"></path>
</symbol>
</defs>
</svg>