<svg aria-hidden="true" style="position: absolute; width: 0; height: 0; overflow: hidden;" version="1.1" xmlns="http://www.w3.org/2000/svg" xmlns:xlink="http://www.w3.org/1999/xlink">
<defs>
<symbol id="icon-briefcase2" viewBox="0 0 16 16">
<title>briefcase2</title>
<path d="M14.5 5h-3.5v-2c0-0.55-0.45-1-1-1h-4c-0.55 0-1 0.45-1 1v2h-3.5c-0.825 0-1.5 0.675-1.5 1.5v7c0 0.825 0.675 1.5 1.5 1.5h13c0.825 0 1.5-0.675 1.5-1.5v-7c0-0.825-0.675-1.5-1.5-1.5zM6 3.002c0-0.001 0.001-0.001 0.002-0.002h3.996c0.001 0.001 0.001 0.001 0.002 0.002v1.998h-4v-1.998z"></path>
</symbol>
</defs>
</svg>