<svg aria-hidden="true" style="position: absolute; width: 0; height: 0; overflow: hidden;" version="1.1" xmlns="http://www.w3.org/2000/svg" xmlns:xlink="http://www.w3.org/1999/xlink">
<defs>
<symbol id="icon-brush" viewBox="0 0 16 16">
<title>brush</title>
<path d="M3.45 15.992c-0 0-0 0-0 0-1.856-0-3.204-1.056-3.261-1.101-0.166-0.132-0.231-0.355-0.161-0.556s0.259-0.335 0.472-0.335c1.49 0 1.838-0.801 2.279-1.815 0.424-0.973 0.951-2.185 2.721-2.185 0.668 0 1.295 0.26 1.767 0.732s0.732 1.1 0.732 1.768c0 0.668-0.26 1.296-0.732 1.768-1.144 1.144-2.429 1.724-3.818 1.724z"></path>
<path d="M15.662 0.251c-0.415-0.366-1.048-0.327-1.414 0.087l-7.565 8.561c-0.045 0.051-0.093 0.113-0.132 0.17-0.066 0.097-0.121 0.198-0.165 0.302 0.529 0.149 1.014 0.431 1.413 0.83 0.402 0.402 0.685 0.89 0.833 1.422 0.298-0.124 0.565-0.332 0.76-0.618l6.435-9.439c0.281-0.411 0.218-0.977-0.164-1.315z"></path>
</symbol>
</defs>
</svg>