<svg aria-hidden="true" style="position: absolute; width: 0; height: 0; overflow: hidden;" version="1.1" xmlns="http://www.w3.org/2000/svg" xmlns:xlink="http://www.w3.org/1999/xlink">
<defs>
<symbol id="icon-bubble-heart" viewBox="0 0 16 16">
<title>bubble-heart</title>
<path d="M14.5 0h-13c-0.825 0-1.5 0.675-1.5 1.5v9c0 0.825 0.675 1.5 1.5 1.5h2.5v4l4.8-4h5.7c0.825 0 1.5-0.675 1.5-1.5v-9c0-0.825-0.675-1.5-1.5-1.5zM11.5 6.494l-0.004 0.004c-0.075 0.088-3.496 3.502-3.496 3.502s-3.418-3.411-3.488-3.492l-0.006-0.006 0.001-0c-0.316-0.371-0.507-0.851-0.507-1.377 0-1.174 0.951-2.125 2.125-2.125 0.812 0 1.517 0.455 1.875 1.125 0.358-0.669 1.063-1.125 1.875-1.125 1.174 0 2.125 0.951 2.125 2.125 0 0.522-0.188 0.999-0.5 1.369l0 0z"></path>
</symbol>
</defs>
</svg>