<svg aria-hidden="true" style="position: absolute; width: 0; height: 0; overflow: hidden;" version="1.1" xmlns="http://www.w3.org/2000/svg" xmlns:xlink="http://www.w3.org/1999/xlink">
<defs>
<symbol id="icon-bubbles9" viewBox="0 0 18 16">
<title>bubbles9</title>
<path d="M12.5 0h-11c-0.825 0-1.5 0.675-1.5 1.5v5c0 0.825 0.675 1.5 1.5 1.5h0.5v4l4.8-4h5.7c0.825 0 1.5-0.675 1.5-1.5v-5c0-0.825-0.675-1.5-1.5-1.5zM12 6h-5.924l-3.076 2.73v-2.73h-1v-4h10v4zM16.5 3c0.825 0 1.5 0.675 1.5 1.5v6c0 0.825-0.675 1.5-1.5 1.5h-2.5v4l-4.8-4h-3.2v-2h3.924l3.076 2.73v-2.73h3v-5h-1v-2h1.5z"></path>
</symbol>
</defs>
</svg>