<svg aria-hidden="true" style="position: absolute; width: 0; height: 0; overflow: hidden;" version="1.1" xmlns="http://www.w3.org/2000/svg" xmlns:xlink="http://www.w3.org/1999/xlink">
<defs>
<symbol id="icon-bubble-dots" viewBox="0 0 16 16">
<title>bubble-dots</title>
<path d="M13.063 1h-10.125c-1.616 0-2.938 1.322-2.938 2.938v11.063l3-3h10.063c1.616 0 2.938-1.322 2.938-2.938v-5.125c0-1.616-1.322-2.938-2.938-2.938zM5 8c-0.552 0-1-0.448-1-1s0.448-1 1-1 1 0.448 1 1-0.448 1-1 1zM8 8c-0.552 0-1-0.448-1-1s0.448-1 1-1 1 0.448 1 1-0.448 1-1 1zM11 8c-0.552 0-1-0.448-1-1s0.448-1 1-1 1 0.448 1 1-0.448 1-1 1z"></path>
</symbol>
</defs>
</svg>