<svg aria-hidden="true" style="position: absolute; width: 0; height: 0; overflow: hidden;" version="1.1" xmlns="http://www.w3.org/2000/svg" xmlns:xlink="http://www.w3.org/1999/xlink">
<defs>
<symbol id="icon-bubble-reply2" viewBox="0 0 16 16">
<title>bubble-reply2</title>
<path d="M14.5 0h-13c-0.825 0-1.5 0.675-1.5 1.5v9c0 0.825 0.675 1.5 1.5 1.5h2.5v4l4.8-4h5.7c0.825 0 1.5-0.675 1.5-1.5v-9c0-0.825-0.675-1.5-1.5-1.5zM12.996 3c0 2.209-2.237 4-4.996 4v3.5l-4.5-4.5 4.5-4.5v3.392c1.528 0.309 3.020-0.042 3.987-1.092 0.45-0.488 0.739-1.078 0.877-1.719 0.087 0.295 0.133 0.602 0.133 0.918z"></path>
</symbol>
</defs>
</svg>