<svg aria-hidden="true" style="position: absolute; width: 0; height: 0; overflow: hidden;" version="1.1" xmlns="http://www.w3.org/2000/svg" xmlns:xlink="http://www.w3.org/1999/xlink">
<defs>
<symbol id="icon-bubbles7" viewBox="0 0 16 16">
<title>bubbles7</title>
<path d="M14.5 3c0.825 0 1.5 0.675 1.5 1.5v7c0 0.825-0.675 1.5-1.5 1.5h-2.429l-2.571 3-2.571-3h-2.429c-0.825 0-1.5-0.675-1.5-1.5v-7c0-0.825 0.675-1.5 1.5-1.5h10zM2 2v8h-0.5c-0.825 0-1.5-0.675-1.5-1.5v-7c0-0.825 0.675-1.5 1.5-1.5h10c0.825 0 1.5 0.675 1.5 1.5v0.5h-11z"></path>
</symbol>
</defs>
</svg>