<svg aria-hidden="true" style="position: absolute; width: 0; height: 0; overflow: hidden;" version="1.1" xmlns="http://www.w3.org/2000/svg" xmlns:xlink="http://www.w3.org/1999/xlink">
<defs>
<symbol id="icon-bubble-paperclip" viewBox="0 0 16 16">
<title>bubble-paperclip</title>
<path d="M14.5 0h-13c-0.825 0-1.5 0.675-1.5 1.5v9c0 0.825 0.675 1.5 1.5 1.5h2.5v4l4.8-4h5.7c0.825 0 1.5-0.675 1.5-1.5v-9c0-0.825-0.675-1.5-1.5-1.5zM14 5c0 1.1-0.9 2-2 2h-7c-0.55 0-1-0.45-1-1v-1c0-0.55 0.45-1 1-1h5.5c0.276 0 0.5 0.224 0.5 0.5s-0.224 0.5-0.5 0.5h-5.498c-0.001 0.001-0.001 0.001-0.002 0.002v0.996c0.001 0.001 0.001 0.001 0.002 0.002h6.998c0.265 0 0.515-0.105 0.705-0.295s0.295-0.44 0.295-0.705v-1c0-0.265-0.105-0.515-0.295-0.705s-0.44-0.295-0.705-0.295h-8c-0.265 0-0.515 0.105-0.705 0.295s-0.295 0.441-0.295 0.705v3c0 0.265 0.105 0.515 0.295 0.705s0.441 0.295 0.705 0.295h6.5c0.276 0 0.5 0.224 0.5 0.5s-0.224 0.5-0.5 0.5h-6.5c-1.1 0-2-0.9-2-2v-3c0-1.1 0.9-2 2-2h8c1.1 0 2 0.9 2 2v1z"></path>
</symbol>
</defs>
</svg>