<svg aria-hidden="true" style="position: absolute; width: 0; height: 0; overflow: hidden;" version="1.1" xmlns="http://www.w3.org/2000/svg" xmlns:xlink="http://www.w3.org/1999/xlink">
<defs>
<symbol id="icon-calculator" viewBox="0 0 16 16">
<title>calculator</title>
<path d="M12 0h-8c-0.55 0-1 0.45-1 1v14c0 0.55 0.45 1 1 1h8c0.55 0 1-0.45 1-1v-14c0-0.55-0.45-1-1-1zM6 15h-2v-2h2v2zM6 12h-2v-2h2v2zM6 9h-2v-2h2v2zM9 15h-2v-2h2v2zM9 12h-2v-2h2v2zM9 9h-2v-2h2v2zM12 15h-2v-2h2v2zM12 12h-2v-2h2v2zM12 9h-2v-2h2v2zM12 6h-8v-5h8v5z"></path>
</symbol>
</defs>
</svg>