<svg aria-hidden="true" style="position: absolute; width: 0; height: 0; overflow: hidden;" version="1.1" xmlns="http://www.w3.org/2000/svg" xmlns:xlink="http://www.w3.org/1999/xlink">
<defs>
<symbol id="icon-calendar3" viewBox="0 0 16 16">
<title>calendar3</title>
<path d="M8 7h1v1h-1v-1z"></path>
<path d="M10 9h1v1h-1v-1z"></path>
<path d="M10 11h1v1h-1v-1z"></path>
<path d="M8 5h1v1h-1v-1z"></path>
<path d="M8 9h1v1h-1v-1z"></path>
<path d="M8 13h1v1h-1v-1z"></path>
<path d="M8 11h1v1h-1v-1z"></path>
<path d="M6 5h1v1h-1v-1z"></path>
<path d="M12 9h1v1h-1v-1z"></path>
<path d="M12 7h1v1h-1v-1z"></path>
<path d="M12 5h1v1h-1v-1z"></path>
<path d="M12 11h1v1h-1v-1z"></path>
<path d="M10 5h1v1h-1v-1z"></path>
<path d="M12 13h1v1h-1v-1z"></path>
<path d="M10 7h1v1h-1v-1z"></path>
<path d="M10 13h1v1h-1v-1z"></path>
<path d="M2 7h1v1h-1v-1z"></path>
<path d="M2 9h1v1h-1v-1z"></path>
<path d="M4 13h1v1h-1v-1z"></path>
<path d="M6 7h1v1h-1v-1z"></path>
<path d="M2 13h1v1h-1v-1z"></path>
<path d="M2 11h1v1h-1v-1z"></path>
<path d="M2 5h1v1h-1v-1z"></path>
<path d="M6 11h1v1h-1v-1z"></path>
<path d="M4 11h1v1h-1v-1z"></path>
<path d="M6 9h1v1h-1v-1z"></path>
<path d="M6 13h1v1h-1v-1z"></path>
<path d="M4 5h1v1h-1v-1z"></path>
<path d="M4 9h1v1h-1v-1z"></path>
<path d="M4 7h1v1h-1v-1z"></path>
<path d="M12 1v-1h-2v1h-5v-1h-2v1h-3v15h15v-15h-3zM10 2h2v1h-2v-1zM3 2h2v1h-2v-1zM14 15h-13v-11h13v11z"></path>
</symbol>
</defs>
</svg>