<svg aria-hidden="true" style="position: absolute; width: 0; height: 0; overflow: hidden;" version="1.1" xmlns="http://www.w3.org/2000/svg" xmlns:xlink="http://www.w3.org/1999/xlink">
<defs>
<symbol id="icon-cancel-square" viewBox="0 0 16 16">
<title>cancel-square</title>
<path d="M13.996 2c0.001 0.001 0.003 0.002 0.004 0.004v11.993c-0.001 0.001-0.002 0.003-0.004 0.004h-11.993c-0.001-0.001-0.003-0.002-0.004-0.004v-11.993c0.001-0.001 0.002-0.003 0.004-0.004h11.993zM14 0h-12c-1.1 0-2 0.9-2 2v12c0 1.1 0.9 2 2 2h12c1.1 0 2-0.9 2-2v-12c0-1.1-0.9-2-2-2v0z"></path>
<path d="M10.5 4l-2.5 2.5-2.5-2.5-1.5 1.5 2.5 2.5-2.5 2.5 1.5 1.5 2.5-2.5 2.5 2.5 1.5-1.5-2.5-2.5 2.5-2.5z"></path>
</symbol>
</defs>
</svg>