<svg aria-hidden="true" style="position: absolute; width: 0; height: 0; overflow: hidden;" version="1.1" xmlns="http://www.w3.org/2000/svg" xmlns:xlink="http://www.w3.org/1999/xlink">
<defs>
<symbol id="icon-cassette" viewBox="0 0 16 16">
<title>cassette</title>
<path d="M3.86 12l-0.667 2h9.609l-0.663-2z"></path>
<path d="M15.5 3h-15c-0.276 0-0.5 0.224-0.5 0.5v10c0 0.276 0.224 0.5 0.5 0.5h1.64l0.886-2.658c0.068-0.204 0.259-0.342 0.474-0.342h9c0.216 0 0.407 0.138 0.475 0.343l0.881 2.657h1.644c0.276 0 0.5-0.224 0.5-0.5v-10c0-0.276-0.224-0.5-0.5-0.5zM4 10c-1.105 0-2-0.895-2-2s0.895-2 2-2 2 0.895 2 2c0 1.105-0.895 2-2 2zM12 10c-1.105 0-2-0.895-2-2s0.895-2 2-2 2 0.895 2 2c0 1.105-0.895 2-2 2zM13.5 5h-11c-0.276 0-0.5-0.224-0.5-0.5s0.224-0.5 0.5-0.5h11c0.276 0 0.5 0.224 0.5 0.5s-0.224 0.5-0.5 0.5z"></path>
<path d="M5 8c0 0.552-0.448 1-1 1s-1-0.448-1-1c0-0.552 0.448-1 1-1s1 0.448 1 1z"></path>
<path d="M13 8c0 0.552-0.448 1-1 1s-1-0.448-1-1c0-0.552 0.448-1 1-1s1 0.448 1 1z"></path>
</symbol>
</defs>
</svg>