<svg aria-hidden="true" style="position: absolute; width: 0; height: 0; overflow: hidden;" version="1.1" xmlns="http://www.w3.org/2000/svg" xmlns:xlink="http://www.w3.org/1999/xlink">
<defs>
<symbol id="icon-cheese" viewBox="0 0 16 16">
<title>cheese</title>
<path d="M15.743 7.063l-11.075-6.155c-0.145-0.081-0.321-0.084-0.469-0.009-2.59 1.313-4.199 3.843-4.199 6.601v6c0 0.276 0.224 0.5 0.5 0.5h15c0.276 0 0.5-0.224 0.5-0.5v-5.998c0.001-0.179-0.095-0.349-0.257-0.439zM7.969 5.094c0.518 0 0.938 0.392 0.938 0.875s-0.42 0.875-0.938 0.875-0.938-0.392-0.938-0.875c0-0.483 0.42-0.875 0.938-0.875zM4 4.067c0.552 0 1 0.418 1 0.933s-0.448 0.933-1 0.933-1-0.418-1-0.933c0-0.515 0.448-0.933 1-0.933zM12 13c0-0.552-0.448-1-1-1s-1 0.448-1 1h-9v-5h14v1h-0.5c-0.828 0-1.5 0.672-1.5 1.5s0.672 1.5 1.5 1.5h0.5v1h-3z"></path>
<path d="M4 10c0 0.552-0.448 1-1 1s-1-0.448-1-1c0-0.552 0.448-1 1-1s1 0.448 1 1z"></path>
<path d="M8 10.5c0 0.828-0.672 1.5-1.5 1.5s-1.5-0.672-1.5-1.5c0-0.828 0.672-1.5 1.5-1.5s1.5 0.672 1.5 1.5z"></path>
<path d="M11 10c0 0.552-0.448 1-1 1s-1-0.448-1-1c0-0.552 0.448-1 1-1s1 0.448 1 1z"></path>
</symbol>
</defs>
</svg>