<svg aria-hidden="true" style="position: absolute; width: 0; height: 0; overflow: hidden;" version="1.1" xmlns="http://www.w3.org/2000/svg" xmlns:xlink="http://www.w3.org/1999/xlink">
<defs>
<symbol id="icon-chess" viewBox="0 0 16 16">
<title>chess</title>
<path d="M14 0h2v2h-2zM14 4h2v2h-2zM14 8h2v2h-2zM14 12h2v2h-2zM12 2h2v2h-2zM12 6h2v2h-2zM12 10h2v2h-2zM12 14h2v2h-2zM10 0h2v2h-2zM10 4h2v2h-2zM10 8h2v2h-2zM10 12h2v2h-2zM8 2h2v2h-2zM8 6h2v2h-2zM8 10h2v2h-2zM8 14h2v2h-2zM6 0h2v2h-2zM6 4h2v2h-2zM6 8h2v2h-2zM6 12h2v2h-2zM4 2h2v2h-2zM4 6h2v2h-2zM4 10h2v2h-2zM4 14h2v2h-2zM2 0h2v2h-2zM2 4h2v2h-2zM2 8h2v2h-2zM2 12h2v2h-2zM0 2h2v2h-2zM0 6h2v2h-2zM0 10h2v2h-2zM0 14h2v2h-2z"></path>
</symbol>
</defs>
</svg>