<svg aria-hidden="true" style="position: absolute; width: 0; height: 0; overflow: hidden;" version="1.1" xmlns="http://www.w3.org/2000/svg" xmlns:xlink="http://www.w3.org/1999/xlink">
<defs>
<symbol id="icon-chicken" viewBox="0 0 16 16">
<title>chicken</title>
<path d="M15 12c-2.5 0-3.75-2.25-3.75-2.25-1 0-1.5 0.5-1.5 1.5 0 0 2.25 1.25 2.25 3.75 0 0.552 0.448 1 1 1s1-0.448 1-1v-0.5c0-0.276 0.224-0.5 0.5-0.5h0.5c0.552 0 1-0.448 1-1s-0.448-1-1-1z"></path>
<path d="M9 10.5c0-0.828 0.672-1.5 1.5-1.5 0.171 0 0.335 0.029 0.488 0.081 0.144-0.498 0.151-1.047-0.014-1.486l-0.447-1.191c-0.29-0.772-0.721-2.051-0.958-2.841-0-0-1.069-3.563-5.069-3.563-2.485 0-4.5 2.015-4.5 4.5 0 4 3.563 5.069 3.563 5.069 0.79 0.237 1.437 0.431 1.437 0.431s0.632 0.237 1.404 0.527l1.191 0.447c0.439 0.165 0.987 0.158 1.486 0.014-0.053-0.153-0.081-0.317-0.081-0.488z"></path>
</symbol>
</defs>
</svg>