<svg aria-hidden="true" style="position: absolute; width: 0; height: 0; overflow: hidden;" version="1.1" xmlns="http://www.w3.org/2000/svg" xmlns:xlink="http://www.w3.org/1999/xlink">
<defs>
<symbol id="icon-circle-css" viewBox="0 0 16 16">
<title>circle-css</title>
<path d="M8 0c-4.418 0-8 3.582-8 8s3.582 8 8 8 8-3.582 8-8-3.582-8-8-8zM7 4.111c-0.552 0-1 0.497-1 1.111v1.111c0 0.92-0.672 1.667-1.5 1.667 0.828 0 1.5 0.746 1.5 1.667v1.111c0 0.614 0.448 1.111 1 1.111v1.111h-1c-1.103 0-2-0.997-2-2.222v-1.111c0-0.614-0.448-1.111-1-1.111v-1.111c0.552 0 1-0.497 1-1.111v-1.111c0-1.225 0.897-2.222 2-2.222h1v1.111zM13 8.556c-0.552 0-1 0.498-1 1.111v1.111c0 1.225-0.897 2.222-2 2.222h-1v-1.111c0.552 0 1-0.497 1-1.111v-1.111c0-0.92 0.672-1.667 1.5-1.667-0.828 0-1.5-0.746-1.5-1.667v-1.111c0-0.614-0.448-1.111-1-1.111v-1.111h1c1.103 0 2 0.997 2 2.222v1.111c0 0.614 0.448 1.111 1 1.111v1.111z"></path>
</symbol>
</defs>
</svg>