<svg aria-hidden="true" style="position: absolute; width: 0; height: 0; overflow: hidden;" version="1.1" xmlns="http://www.w3.org/2000/svg" xmlns:xlink="http://www.w3.org/1999/xlink">
<defs>
<symbol id="icon-circle-code" viewBox="0 0 16 16">
<title>circle-code</title>
<path d="M8 0c-4.418 0-8 3.582-8 8s3.582 8 8 8 8-3.582 8-8-3.582-8-8-8zM6.707 10.293c0.391 0.391 0.391 1.024 0 1.414-0.195 0.195-0.451 0.293-0.707 0.293s-0.512-0.098-0.707-0.293l-3-3c-0.391-0.391-0.391-1.024 0-1.414l3-3c0.391-0.391 1.024-0.391 1.414 0s0.391 1.024 0 1.414l-2.293 2.293 2.293 2.293zM10.707 11.707c-0.391 0.391-1.024 0.391-1.414 0s-0.391-1.024 0-1.414l2.293-2.293-2.293-2.293c-0.391-0.391-0.391-1.024 0-1.414 0.195-0.195 0.451-0.293 0.707-0.293s0.512 0.098 0.707 0.293l3 3c0.391 0.391 0.391 1.024 0 1.414l-3 3z"></path>
</symbol>
</defs>
</svg>