<svg aria-hidden="true" style="position: absolute; width: 0; height: 0; overflow: hidden;" version="1.1" xmlns="http://www.w3.org/2000/svg" xmlns:xlink="http://www.w3.org/1999/xlink">
<defs>
<symbol id="icon-circles2" viewBox="0 0 16 16">
<title>circles2</title>
<path d="M8 1c-3.866 0-7 3.134-7 7s3.134 7 7 7 7-3.134 7-7-3.134-7-7-7zM8 13c-2.761 0-5-2.239-5-5s2.239-5 5-5 5 2.239 5 5-2.239 5-5 5z"></path>
<path d="M8 5.25c1.516 0 2.75 1.234 2.75 2.75s-1.234 2.75-2.75 2.75-2.75-1.234-2.75-2.75 1.234-2.75 2.75-2.75zM8 4.25c-2.071 0-3.75 1.679-3.75 3.75s1.679 3.75 3.75 3.75c2.071 0 3.75-1.679 3.75-3.75s-1.679-3.75-3.75-3.75v0z"></path>
</symbol>
</defs>
</svg>