<svg aria-hidden="true" style="position: absolute; width: 0; height: 0; overflow: hidden;" version="1.1" xmlns="http://www.w3.org/2000/svg" xmlns:xlink="http://www.w3.org/1999/xlink">
<defs>
<symbol id="icon-clipboard5" viewBox="0 0 16 16">
<title>clipboard5</title>
<path d="M4 4h8v-2h-2c0-1.105-0.895-2-2-2s-2 0.895-2 2h-2v2zM8 1c0.552 0 1 0.448 1 1s-0.448 1-1 1c-0.552 0-1-0.448-1-1s0.448-1 1-1z"></path>
<path d="M14.5 2h-1.5v2.5c0 0.276-0.224 0.5-0.5 0.5h-9c-0.276 0-0.5-0.224-0.5-0.5v-2.5h-1.5c-0.276 0-0.5 0.224-0.5 0.5v13c0 0.276 0.224 0.5 0.5 0.5h13c0.276 0 0.5-0.224 0.5-0.5v-13c0-0.276-0.224-0.5-0.5-0.5zM7 14.414l-3.207-3.707 0.914-0.914 2.293 1.793 4.293-3.793 0.914 0.914-5.207 5.707z"></path>
</symbol>
</defs>
</svg>