<svg aria-hidden="true" style="position: absolute; width: 0; height: 0; overflow: hidden;" version="1.1" xmlns="http://www.w3.org/2000/svg" xmlns:xlink="http://www.w3.org/1999/xlink">
<defs>
<symbol id="icon-code" viewBox="0 0 20 16">
<title>code</title>
<path d="M4 5.5v-2c0-0.828 0.672-1.5 1.5-1.5h0.5v-2h-0.5c-1.933 0-3.5 1.567-3.5 3.5v2c0 0.828-0.672 1.5-1.5 1.5h-0.5v2h0.5c0.828 0 1.5 0.672 1.5 1.5v2c0 1.933 1.567 3.5 3.5 3.5h0.5v-2h-0.5c-0.828 0-1.5-0.672-1.5-1.5v-2c0-0.979-0.402-1.865-1.051-2.5 0.648-0.635 1.051-1.521 1.051-2.5z"></path>
<path d="M16 5.5v-2c0-0.828-0.672-1.5-1.5-1.5h-0.5v-2h0.5c1.933 0 3.5 1.567 3.5 3.5v2c0 0.828 0.672 1.5 1.5 1.5h0.5v2h-0.5c-0.828 0-1.5 0.672-1.5 1.5v2c0 1.933-1.567 3.5-3.5 3.5h-0.5v-2h0.5c0.828 0 1.5-0.672 1.5-1.5v-2c0-0.979 0.402-1.865 1.051-2.5-0.648-0.635-1.051-1.521-1.051-2.5z"></path>
<path d="M12 5.014c0 1.105-0.895 2-2 2s-2-0.895-2-2c0-1.105 0.895-2 2-2s2 0.895 2 2z"></path>
<path d="M10 7.986c-1.105 0-2 0.895-2 2 0 1.074 0.5 1.925 2.034 1.998-0.456 0.643-1.143 0.896-2.034 0.98v1.188c0 0 4 0.349 4-4.165-0.004-1.105-0.895-2-2-2z"></path>
</symbol>
</defs>
</svg>