<svg aria-hidden="true" style="position: absolute; width: 0; height: 0; overflow: hidden;" version="1.1" xmlns="http://www.w3.org/2000/svg" xmlns:xlink="http://www.w3.org/1999/xlink">
<defs>
<symbol id="icon-coffee-bean" viewBox="0 0 16 16">
<title>coffee-bean</title>
<path d="M7.834 10.231c-1.008-3.7-1.893-6.601 0.286-10.229-0.040-0.001-0.080-0.002-0.12-0.002-4.5 0-6 3.582-6 8 0 4.064 1.269 7.42 4.975 7.932 0.916-1.643 1.354-3.881 0.859-5.701z"></path>
<path d="M9.019 0.067c-0.877 1.358-1.318 3.35-0.89 4.902 1.109 4.017 1.814 7.013-0.3 11.029 0.056 0.001 0.113 0.002 0.171 0.002 4.5 0 6-3.582 6-8 0-4.066-1.271-7.424-4.981-7.933z"></path>
</symbol>
</defs>
</svg>