<svg aria-hidden="true" style="position: absolute; width: 0; height: 0; overflow: hidden;" version="1.1" xmlns="http://www.w3.org/2000/svg" xmlns:xlink="http://www.w3.org/1999/xlink">
<defs>
<symbol id="icon-coffee" viewBox="0 0 16 16">
<title>coffee</title>
<path d="M13.5 2h-0.691l-0.862-1.724c-0.085-0.169-0.258-0.276-0.447-0.276h-7c-0.189 0-0.363 0.107-0.447 0.276l-0.862 1.724h-0.691c-0.276 0-0.5 0.224-0.5 0.5v3c0 0.276 0.224 0.5 0.5 0.5h0.5c0 0.017 0.001 0.035 0.003 0.052l1 9.5c0.027 0.254 0.241 0.448 0.497 0.448h7c0.256 0 0.47-0.193 0.497-0.448l1-9.5c0.002-0.018 0.003-0.035 0.003-0.052h0.5c0.276 0 0.5-0.224 0.5-0.5v-3c0-0.276-0.224-0.5-0.5-0.5zM4.809 1h6.382l0.5 1h-7.382l0.5-1zM4.95 15l-0.316-3h6.731l-0.316 3h-6.1zM7 10c0-0.552 0.448-1 1-1s1 0.448 1 1-0.448 1-1 1c-0.552 0-1-0.448-1-1zM11.787 8h-7.573l-0.211-2h7.995l-0.211 2zM13 5h-10v-2h9.497c0.001 0 0.002 0 0.003 0s0.001-0 0.002-0h0.498v2z"></path>
</symbol>
</defs>
</svg>