<svg aria-hidden="true" style="position: absolute; width: 0; height: 0; overflow: hidden;" version="1.1" xmlns="http://www.w3.org/2000/svg" xmlns:xlink="http://www.w3.org/1999/xlink">
<defs>
<symbol id="icon-cog2" viewBox="0 0 16 16">
<title>cog2</title>
<path d="M16 9.501v-3.003l-2.293-0.382c-0.093-0.283-0.207-0.557-0.339-0.82l1.351-1.891-2.123-2.123-1.888 1.349c-0.264-0.134-0.54-0.248-0.825-0.342l-0.381-2.288h-3.003l-0.381 2.288c-0.285 0.094-0.56 0.209-0.824 0.342l-1.888-1.349-2.123 2.123 1.351 1.891c-0.132 0.263-0.246 0.537-0.339 0.82l-2.293 0.382v3.003l2.299 0.383c0.093 0.281 0.206 0.552 0.338 0.813l-1.355 1.898 2.123 2.123 1.901-1.358c0.259 0.13 0.53 0.243 0.809 0.335l0.384 2.304h3.003l0.384-2.304c0.279-0.092 0.549-0.204 0.809-0.335l1.901 1.358 2.123-2.123-1.355-1.898c0.132-0.261 0.245-0.532 0.338-0.813l2.299-0.383zM8 10c-1.105 0-2-0.895-2-2s0.895-2 2-2c1.105 0 2 0.895 2 2s-0.895 2-2 2z"></path>
</symbol>
</defs>
</svg>