<svg aria-hidden="true" style="position: absolute; width: 0; height: 0; overflow: hidden;" version="1.1" xmlns="http://www.w3.org/2000/svg" xmlns:xlink="http://www.w3.org/1999/xlink">
<defs>
<symbol id="icon-cog5" viewBox="0 0 16 16">
<title>cog5</title>
<path d="M16 6.5l-3.527-0.353 2.245-2.743-2.121-2.121-2.743 2.245-0.353-3.527h-3l-0.353 3.527-2.743-2.245-2.121 2.121 2.245 2.743-3.527 0.353v3l3.527 0.353-2.245 2.743 2.121 2.121 2.743-2.245 0.353 3.527h3l0.353-3.527 2.743 2.245 2.121-2.121-2.245-2.743 3.527-0.353v-3zM8 11c-1.657 0-3-1.343-3-3s1.343-3 3-3 3 1.343 3 3-1.343 3-3 3z"></path>
<path d="M9 8c0 0.552-0.448 1-1 1s-1-0.448-1-1c0-0.552 0.448-1 1-1s1 0.448 1 1z"></path>
</symbol>
</defs>
</svg>