<svg aria-hidden="true" style="position: absolute; width: 0; height: 0; overflow: hidden;" version="1.1" xmlns="http://www.w3.org/2000/svg" xmlns:xlink="http://www.w3.org/1999/xlink">
<defs>
<symbol id="icon-cog6" viewBox="0 0 16 16">
<title>cog6</title>
<path d="M16 7l-3.767-0.753 2.131-3.196-1.414-1.414-3.196 2.131-0.753-3.767h-2l-0.753 3.767-3.196-2.131-1.414 1.414 2.131 3.196-3.767 0.753v2l3.767 0.753-2.131 3.196 1.414 1.414 3.196-2.131 0.753 3.767h2l0.753-3.767 3.196 2.131 1.414-1.414-2.131-3.196 3.767-0.753v-2zM8 11c-1.657 0-3-1.343-3-3s1.343-3 3-3 3 1.343 3 3-1.343 3-3 3z"></path>
</symbol>
</defs>
</svg>