<svg aria-hidden="true" style="position: absolute; width: 0; height: 0; overflow: hidden;" version="1.1" xmlns="http://www.w3.org/2000/svg" xmlns:xlink="http://www.w3.org/1999/xlink">
<defs>
<symbol id="icon-color-sampler" viewBox="0 0 16 16">
<title>color-sampler</title>
<path d="M11.5 11h-11c-0.276 0-0.5 0.224-0.5 0.5v3c0 0.276 0.224 0.5 0.5 0.5h11c0.276 0 0.5-0.224 0.5-0.5v-3c0-0.276-0.224-0.5-0.5-0.5zM10 14c-0.552 0-1-0.448-1-1s0.448-1 1-1 1 0.448 1 1-0.448 1-1 1z"></path>
<path d="M12 10.581v-7.081c0-0.276-0.224-0.5-0.5-0.5h-3c-0.276 0-0.5 0.224-0.5 0.5v3.081l4 4z"></path>
<path d="M15.698 4.646l-2.698-1.302v8.042l2.931-6.072c0.12-0.249 0.016-0.548-0.233-0.668z"></path>
<path d="M9.828 10l-5.132-5.132c-0.195-0.195-0.512-0.195-0.707 0l-2.121 2.121c-0.195 0.195-0.195 0.512 0 0.707l2.303 2.303h5.657z"></path>
</symbol>
</defs>
</svg>