<svg aria-hidden="true" style="position: absolute; width: 0; height: 0; overflow: hidden;" version="1.1" xmlns="http://www.w3.org/2000/svg" xmlns:xlink="http://www.w3.org/1999/xlink">
<defs>
<symbol id="icon-comb" viewBox="0 0 16 16">
<title>comb</title>
<path d="M14 5h-13c-0.552 0-1 0.448-1 1v5.5c0 0.276 0.224 0.5 0.5 0.5s0.5-0.224 0.5-0.5v-3.5h1v3.5c0 0.276 0.224 0.5 0.5 0.5s0.5-0.224 0.5-0.5v-3.5h1v3.5c0 0.276 0.224 0.5 0.5 0.5s0.5-0.224 0.5-0.5v-3.5h1v3.5c0 0.276 0.224 0.5 0.5 0.5s0.5-0.224 0.5-0.5v-3.5h1v3.5c0 0.276 0.224 0.5 0.5 0.5s0.5-0.224 0.5-0.5v-3.5h1v3.5c0 0.276 0.224 0.5 0.5 0.5s0.5-0.224 0.5-0.5v-3.5h1v3.5c0 0.276 0.224 0.5 0.5 0.5s0.5-0.224 0.5-0.5v-3.5h1v3.5c0 0.276 0.224 0.5 0.5 0.5s0.5-0.224 0.5-0.5v-5.5c0-0.552-0.448-1-1-1z"></path>
</symbol>
</defs>
</svg>