<svg aria-hidden="true" style="position: absolute; width: 0; height: 0; overflow: hidden;" version="1.1" xmlns="http://www.w3.org/2000/svg" xmlns:xlink="http://www.w3.org/1999/xlink">
<defs>
<symbol id="icon-compass4" viewBox="0 0 16 16">
<title>compass4</title>
<path d="M9.673 7.501l1.327-1.796v-0.706h-0.706l-1.796 1.327-0.768-3.327h-0.462l-0.768 3.327-1.796-1.327h-0.706v0.706l1.327 1.796-3.327 0.768v0.462l3.327 0.768-1.327 1.796v0.706h0.706l1.796-1.327 0.768 3.327h0.462l0.768-3.327 1.796 1.327h0.706v-0.706l-1.327-1.796 3.327-0.768v-0.462l-3.327-0.768zM7.5 9c-0.276 0-0.5-0.224-0.5-0.5s0.224-0.5 0.5-0.5 0.5 0.224 0.5 0.5-0.224 0.5-0.5 0.5z"></path>
<path d="M7.5 1c-4.142 0-7.5 3.358-7.5 7.5s3.358 7.5 7.5 7.5c4.142 0 7.5-3.358 7.5-7.5s-3.358-7.5-7.5-7.5zM7.5 14.5c-3.314 0-6-2.686-6-6s2.686-6 6-6 6 2.686 6 6-2.686 6-6 6z"></path>
</symbol>
</defs>
</svg>