<svg aria-hidden="true" style="position: absolute; width: 0; height: 0; overflow: hidden;" version="1.1" xmlns="http://www.w3.org/2000/svg" xmlns:xlink="http://www.w3.org/1999/xlink">
<defs>
<symbol id="icon-cube4" viewBox="0 0 16 16">
<title>cube4</title>
<path d="M7.625 0h-0.251l-7.375 3.951v7.129l7.348 4.921h0.304l7.348-4.921v-7.129l-7.375-3.951zM6.345 14.125l-0.373-0.25h1.028v0.25h-0.655zM7 14.375v0.188l-0.281-0.188h0.281zM5.599 13.625l-0.373-0.25h1.775v0.25h-1.401zM4.852 13.125l-0.373-0.25h2.521v0.25h-2.148zM4.105 12.625l-0.373-0.25h3.268v0.25h-2.895zM3.359 12.125l-0.373-0.25h4.015v0.25h-3.641zM2.612 11.625l-0.373-0.25h4.761v0.25h-4.388zM1.865 11.125l-0.373-0.25h5.508v0.25h-5.135zM1.119 10.625l-0.119-0.079v-0.171h6v0.25h-5.881zM1 10.125v-0.25h6v0.25h-6zM1 9.625v-0.25h6v0.25h-6zM1 9.125v-0.25h6v0.25h-6zM1 8.625v-0.25h6v0.25h-6zM1 8.125v-0.25h5.208l0.467 0.25h-5.675zM1 7.625v-0.25h4.274l0.467 0.25h-4.741zM1 7.125v-0.25h3.341l0.467 0.25h-3.808zM1 6.625v-0.25h2.408l0.467 0.25h-2.874zM1 6.125v-0.25h1.474l0.467 0.25h-1.941zM1 5.625v-0.25h0.541l0.467 0.25h-1.008zM1 5.125v-0.040l0.074 0.040h-0.074zM7.5 7.433l-5.941-3.183 5.941-3.183 5.941 3.183-5.941 3.183z"></path>
</symbol>
</defs>
</svg>