<svg aria-hidden="true" style="position: absolute; width: 0; height: 0; overflow: hidden;" version="1.1" xmlns="http://www.w3.org/2000/svg" xmlns:xlink="http://www.w3.org/1999/xlink">
<defs>
<symbol id="icon-database" viewBox="0 0 16 16">
<title>database</title>
<path d="M8 0c-4.418 0-8 1.119-8 2.5v2c0 1.381 3.582 2.5 8 2.5s8-1.119 8-2.5v-2c0-1.381-3.582-2.5-8-2.5z"></path>
<path d="M8 8.5c-4.418 0-8-1.119-8-2.5v3c0 1.381 3.582 2.5 8 2.5s8-1.119 8-2.5v-3c0 1.381-3.582 2.5-8 2.5z"></path>
<path d="M8 13c-4.418 0-8-1.119-8-2.5v3c0 1.381 3.582 2.5 8 2.5s8-1.119 8-2.5v-3c0 1.381-3.582 2.5-8 2.5z"></path>
</symbol>
</defs>
</svg>