<svg aria-hidden="true" style="position: absolute; width: 0; height: 0; overflow: hidden;" version="1.1" xmlns="http://www.w3.org/2000/svg" xmlns:xlink="http://www.w3.org/1999/xlink">
<defs>
<symbol id="icon-database-diff" viewBox="0 0 16 16">
<title>database-diff</title>
<path d="M9 14h6v2h-6v-2z"></path>
<path d="M15 9h-2v-2h-2v2h-2v2h2v2h2v-2h2z"></path>
<path d="M8 13.421c-0.752 0.173-1.611 0.266-2.5 0.266-1.242 0-2.429-0.181-3.342-0.51-0.763-0.275-1.074-0.562-1.158-0.677v-2.594c0.995 0.643 2.64 1.062 4.5 1.062 0.9 0 1.75-0.098 2.5-0.273v-1.306c-0.752 0.173-1.611 0.266-2.5 0.266-1.242 0-2.429-0.181-3.342-0.51-0.762-0.275-1.074-0.562-1.158-0.677v-2.531c0.995 0.643 2.64 1.062 4.5 1.062 3.038 0 5.5-1.119 5.5-2.5s-2.462-2.5-5.5-2.5-5.5 1.119-5.5 2.5v8c0 1.381 2.462 2.5 5.5 2.5 0.9 0 1.75-0.098 2.5-0.273v-1.306zM2.402 3.823c0.846-0.329 1.946-0.51 3.098-0.51s2.252 0.181 3.098 0.51c0.707 0.275 0.995 0.562 1.074 0.677-0.078 0.115-0.367 0.402-1.074 0.677-0.846 0.329-1.946 0.51-3.098 0.51s-2.252-0.181-3.098-0.51c-0.707-0.275-0.996-0.562-1.074-0.677 0.078-0.115 0.367-0.402 1.074-0.677z"></path>
</symbol>
</defs>
</svg>