<svg aria-hidden="true" style="position: absolute; width: 0; height: 0; overflow: hidden;" version="1.1" xmlns="http://www.w3.org/2000/svg" xmlns:xlink="http://www.w3.org/1999/xlink">
<defs>
<symbol id="icon-day-night2" viewBox="0 0 16 16">
<title>day-night2</title>
<path d="M11.5 4c-0.278 0-0.55 0.025-0.815 0.074 1.374 0.99 2.268 2.604 2.268 4.426s-0.894 3.436-2.268 4.426c0.264 0.048 0.537 0.074 0.815 0.074 2.485 0 4.5-2.015 4.5-4.5s-2.015-4.5-4.5-4.5z"></path>
<path d="M7.5 16c-0.276 0-0.5-0.224-0.5-0.5v-1c0-0.276 0.224-0.5 0.5-0.5s0.5 0.224 0.5 0.5v1c0 0.276-0.224 0.5-0.5 0.5z"></path>
<path d="M7.5 3c-0.276 0-0.5-0.224-0.5-0.5v-1c0-0.276 0.224-0.5 0.5-0.5s0.5 0.224 0.5 0.5v1c0 0.276-0.224 0.5-0.5 0.5z"></path>
<path d="M2.5 14c-0.128 0-0.256-0.049-0.354-0.146-0.195-0.195-0.195-0.512 0-0.707l1-1c0.195-0.195 0.512-0.195 0.707 0s0.195 0.512 0 0.707l-1 1c-0.098 0.098-0.226 0.146-0.354 0.146z"></path>
<path d="M3.5 5c-0.128 0-0.256-0.049-0.354-0.146l-1-1c-0.195-0.195-0.195-0.512 0-0.707s0.512-0.195 0.707 0l1 1c0.195 0.195 0.195 0.512 0 0.707-0.098 0.098-0.226 0.146-0.354 0.146z"></path>
<path d="M1.5 9h-1c-0.276 0-0.5-0.224-0.5-0.5s0.224-0.5 0.5-0.5h1c0.276 0 0.5 0.224 0.5 0.5s-0.224 0.5-0.5 0.5z"></path>
<path d="M7.5 13c-2.481 0-4.5-2.019-4.5-4.5s2.019-4.5 4.5-4.5c2.481 0 4.5 2.019 4.5 4.5s-2.019 4.5-4.5 4.5zM7.5 5c-1.93 0-3.5 1.57-3.5 3.5s1.57 3.5 3.5 3.5 3.5-1.57 3.5-3.5-1.57-3.5-3.5-3.5z"></path>
</symbol>
</defs>
</svg>