<svg aria-hidden="true" style="position: absolute; width: 0; height: 0; overflow: hidden;" version="1.1" xmlns="http://www.w3.org/2000/svg" xmlns:xlink="http://www.w3.org/1999/xlink">
<defs>
<symbol id="icon-diamond2" viewBox="0 0 16 16">
<title>diamond2</title>
<path d="M12 2h-8l-4 4 8 9 8-9-4-4zM8 12.167v-0.042h-0.037l-0.222-0.25h0.259v-0.25h-0.481l-0.222-0.25h0.704v-0.25h-0.926l-0.222-0.25h1.148v-0.25h-1.37l-0.222-0.25h1.593v-0.25h-1.815l-0.222-0.25h2.037v-0.25h-2.259l-0.222-0.25h2.481v-0.25h-2.704l-0.222-0.25h2.926v-0.25h-3.148l-0.222-0.25h3.37v-0.25h-3.593l-0.222-0.25h3.815v-0.25h-4.037l-0.222-0.25h4.259v-0.25h-4.481l-0.222-0.25h4.704v-0.25h-4.926l-0.222-0.25h5.148v-0.25h-5.37l-0.115-0.129 2.173-2.173h3.312v0.052h3.364l0.25 0.25h-3.614v0.25h3.864l0.25 0.25h-4.114v0.25h4.364l0.25 0.25h-4.614v0.25h4.864l0.25 0.25h-5.114v0.25h5.364l0.121 0.121-5.485 6.171z"></path>
</symbol>
</defs>
</svg>