<svg aria-hidden="true" style="position: absolute; width: 0; height: 0; overflow: hidden;" version="1.1" xmlns="http://www.w3.org/2000/svg" xmlns:xlink="http://www.w3.org/1999/xlink">
<defs>
<symbol id="icon-display2" viewBox="0 0 16 16">
<title>display2</title>
<path d="M0 1v10h16v-10h-16zM15 10h-14v-8h14v8zM10.5 12h-5l-0.5 2-1 1h8l-1-1zM1.5 7.125h13v0.25h-13zM1.5 6.625h13v0.25h-13zM1.5 7.625h13v0.25h-13zM1.5 6.125h13v0.25h-13zM1.5 8.125h13v0.25h-13zM1.5 9.125h13v0.25h-13zM1.5 8.625h13v0.25h-13zM1.5 3.125h13v0.25h-13zM1.5 5.625h13v0.25h-13zM1.5 3.625h13v0.25h-13zM1.5 2.625h13v0.25h-13zM1.5 5.125h13v0.25h-13zM1.5 4.625h13v0.25h-13zM1.5 4.125h13v0.25h-13z"></path>
</symbol>
</defs>
</svg>