<svg aria-hidden="true" style="position: absolute; width: 0; height: 0; overflow: hidden;" version="1.1" xmlns="http://www.w3.org/2000/svg" xmlns:xlink="http://www.w3.org/1999/xlink">
<defs>
<symbol id="icon-download6" viewBox="0 0 16 16">
<title>download6</title>
<path d="M3 16h10c1.657 0 3-1.343 3-3h-16c0 1.657 1.343 3 3 3zM13 14h1v1h-1v-1zM12.5 4l-4.5 4.5-4.5-4.5h3.5v-4h2v4zM15.981 11.519c0.077 0.264-0.089 0.481-0.368 0.481h-15.226c-0.279 0-0.445-0.216-0.368-0.481l1.751-5.038c0.077-0.264 0.368-0.481 0.647-0.481h1.083l4 4h1l4-4h1.083c0.279 0 0.57 0.216 0.647 0.481l1.751 5.038z"></path>
</symbol>
</defs>
</svg>