<svg aria-hidden="true" style="position: absolute; width: 0; height: 0; overflow: hidden;" version="1.1" xmlns="http://www.w3.org/2000/svg" xmlns:xlink="http://www.w3.org/1999/xlink">
<defs>
<symbol id="icon-drag-left-right" viewBox="0 0 21 16">
<title>drag-left-right</title>
<path d="M4 3v-2.5l-3.5 3.5 3.5 3.5v-2.5h4v-2z"></path>
<path d="M17 3v-2.5l3.5 3.5-3.5 3.5v-2.5h-4v-2z"></path>
<path d="M17.5 16h-9.5c-0.172 0-0.333-0.089-0.424-0.235l-2.5-4c-0.143-0.229-0.078-0.531 0.147-0.681l1.5-1c0.213-0.142 0.498-0.1 0.661 0.096l1.616 1.939v-7.619c0-0.276 0.224-0.5 0.5-0.5h2c0.276 0 0.5 0.224 0.5 0.5v3.11l5.621 1.405c0.223 0.056 0.379 0.256 0.379 0.485v6c0 0.276-0.224 0.5-0.5 0.5v0zM8.277 15h8.723v-5.11l-1-0.25v2.86c0 0.276-0.224 0.5-0.5 0.5s-0.5-0.224-0.5-0.5v-3.11l-1-0.25v2.36c0 0.276-0.224 0.5-0.5 0.5s-0.5-0.224-0.5-0.5v-2.61l-1-0.25v3.86c0 0.276-0.224 0.5-0.5 0.5s-0.5-0.224-0.5-0.5v-7.5h-1v8.5c0 0.21-0.132 0.398-0.33 0.47s-0.42 0.012-0.554-0.15l-2.212-2.655-0.722 0.481 2.096 3.353z"></path>
</symbol>
</defs>
</svg>