<svg aria-hidden="true" style="position: absolute; width: 0; height: 0; overflow: hidden;" version="1.1" xmlns="http://www.w3.org/2000/svg" xmlns:xlink="http://www.w3.org/1999/xlink">
<defs>
<symbol id="icon-eight-ball" viewBox="0 0 16 16">
<title>eight-ball</title>
<path d="M8 0c-4.418 0-8 3.582-8 8s3.582 8 8 8 8-3.582 8-8-3.582-8-8-8zM8 11.5c-2.209 0-4-1.791-4-4s1.791-4 4-4 4 1.791 4 4-1.791 4-4 4z"></path>
<path d="M9.502 7.5c0.311-0.264 0.498-0.612 0.498-1 0-0.841-0.879-1.5-2-1.5s-2 0.659-2 1.5c0 0.388 0.187 0.736 0.498 1-0.311 0.264-0.498 0.612-0.498 1 0 0.841 0.878 1.5 2 1.5s2-0.659 2-1.5c0-0.388-0.187-0.736-0.498-1zM7 6.5c0-0.204 0.39-0.5 1-0.5s1 0.296 1 0.5c0 0.204-0.389 0.5-1 0.5-0 0-0 0-0 0s-0 0-0 0c-0.61-0-1-0.296-1-0.5zM8 9c-0.61 0-1-0.296-1-0.5s0.389-0.5 1-0.5c0 0 0 0 0 0s0 0 0 0c0.61 0 1 0.296 1 0.5s-0.39 0.5-1 0.5z"></path>
</symbol>
</defs>
</svg>