<svg aria-hidden="true" style="position: absolute; width: 0; height: 0; overflow: hidden;" version="1.1" xmlns="http://www.w3.org/2000/svg" xmlns:xlink="http://www.w3.org/1999/xlink">
<defs>
<symbol id="icon-eye2" viewBox="0 0 16 16">
<title>eye2</title>
<path d="M8 3.5c-4 0-8 3.5-8 4.5v0c0 1 4 4.5 8 4.5s8-3.5 8-4.5v0c-0-1-4-4.5-8-4.5zM8 11c-1.657 0-3-1.343-3-3s1.343-3 3-3c1.657 0 3 1.343 3 3s-1.343 3-3 3zM6 8c0-1.105 0.895-2 2-2s2 0.895 2 2c0 1.105-0.895 2-2 2s-2-0.895-2-2z"></path>
</symbol>
</defs>
</svg>