<svg aria-hidden="true" style="position: absolute; width: 0; height: 0; overflow: hidden;" version="1.1" xmlns="http://www.w3.org/2000/svg" xmlns:xlink="http://www.w3.org/1999/xlink">
<defs>
<symbol id="icon-eye3" viewBox="0 0 16 16">
<title>eye3</title>
<path d="M8 12.797c-2.315 0-4.376-1.134-5.398-1.811-0.685-0.453-1.315-0.972-1.775-1.461-0.556-0.591-0.827-1.090-0.827-1.526s0.27-0.934 0.827-1.526c0.46-0.489 1.090-1.007 1.775-1.461 1.022-0.676 3.083-1.811 5.398-1.811s4.376 1.134 5.398 1.811c0.685 0.453 1.315 0.972 1.775 1.461 0.556 0.591 0.827 1.090 0.827 1.525s-0.27 0.934-0.827 1.526c-0.46 0.489-1.090 1.007-1.775 1.461-1.022 0.676-3.083 1.811-5.398 1.811zM1.526 8c0.172 0.317 0.883 1.093 2.095 1.858 0.85 0.537 2.549 1.438 4.38 1.438s3.53-0.901 4.38-1.438c1.212-0.766 1.922-1.541 2.095-1.858-0.172-0.317-0.883-1.093-2.095-1.858-0.85-0.537-2.549-1.438-4.38-1.438s-3.53 0.901-4.38 1.438c-1.212 0.766-1.922 1.541-2.095 1.858zM6 8c0-1.105 0.895-2 2-2s2 0.895 2 2c0 1.105-0.895 2-2 2s-2-0.895-2-2z"></path>
</symbol>
</defs>
</svg>