<svg aria-hidden="true" style="position: absolute; width: 0; height: 0; overflow: hidden;" version="1.1" xmlns="http://www.w3.org/2000/svg" xmlns:xlink="http://www.w3.org/1999/xlink">
<defs>
<symbol id="icon-file-plus2" viewBox="0 0 16 16">
<title>file-plus2</title>
<path d="M11 4h3.627c-0.078-0.126-0.172-0.266-0.286-0.421-0.347-0.473-0.831-1.027-1.362-1.558s-1.085-1.015-1.558-1.362c-0.155-0.114-0.295-0.208-0.421-0.286v3.627z"></path>
<path d="M7.875 12.5c0-2.55 2.075-4.625 4.625-4.625 0.92 0 1.779 0.27 2.5 0.736v-3.611h-4.5c-0.276 0-0.5-0.224-0.5-0.5v-4.5h-7.75c-0.689 0-1.25 0.561-1.25 1.25v13.5c0 0.689 0.561 1.25 1.25 1.25h7.23c-0.982-0.849-1.605-2.103-1.605-3.5z"></path>
<path d="M12.5 9c-1.933 0-3.5 1.567-3.5 3.5s1.567 3.5 3.5 3.5c1.933 0 3.5-1.567 3.5-3.5s-1.567-3.5-3.5-3.5zM13 13v2h-1v-2h-2v-1h2v-2h1v2h2v1h-2z"></path>
</symbol>
</defs>
</svg>