<svg aria-hidden="true" style="position: absolute; width: 0; height: 0; overflow: hidden;" version="1.1" xmlns="http://www.w3.org/2000/svg" xmlns:xlink="http://www.w3.org/1999/xlink">
<defs>
<symbol id="icon-film" viewBox="0 0 16 16">
<title>film</title>
<path d="M0 0v16h16v-16h-16zM10 1h2v2h-2v-2zM7 1h2v2h-2v-2zM4 1h2v2h-2v-2zM1 1h2v2h-2v-2zM1 4h6v8h-6v-8zM3 15h-2v-2h2v2zM6 15h-2v-2h2v2zM9 15h-2v-2h2v2zM12 15h-2v-2h2v2zM15 15h-2v-2h2v2zM15 12h-7v-8h7v8zM15 3h-2v-2h2v2z"></path>
</symbol>
</defs>
</svg>