<svg aria-hidden="true" style="position: absolute; width: 0; height: 0; overflow: hidden;" version="1.1" xmlns="http://www.w3.org/2000/svg" xmlns:xlink="http://www.w3.org/1999/xlink">
<defs>
<symbol id="icon-finish" viewBox="0 0 16 16">
<title>finish</title>
<path d="M5 6h2v2h-2v-2z"></path>
<path d="M9 6h2v2h-2v-2z"></path>
<path d="M15 1c-0.552 0-1 0.448-1 1v1h-12v-1c0-0.552-0.448-1-1-1s-1 0.448-1 1v13c0 0.552 0.448 1 1 1s1-0.448 1-1v-4h12v4c0 0.552 0.448 1 1 1s1-0.448 1-1v-13c0-0.552-0.448-1-1-1zM13 10v-2h-2v2h-2v-2h-2v2h-2v-2h-2v2h-1v-2h1v-2h-1v-2h1v2h2v-2h2v2h2v-2h2v2h2v-2h1v2h-1v2h1v2h-1z"></path>
</symbol>
</defs>
</svg>