<svg aria-hidden="true" style="position: absolute; width: 0; height: 0; overflow: hidden;" version="1.1" xmlns="http://www.w3.org/2000/svg" xmlns:xlink="http://www.w3.org/1999/xlink">
<defs>
<symbol id="icon-flag2" viewBox="0 0 16 16">
<title>flag2</title>
<path d="M0 0h2v16h-2v-16z"></path>
<path d="M12.5 2.047c-0.946 0-1.815-0.123-2.5-0.329v-0.944c-0.682-0.461-1.994-0.773-3.5-0.773s-2.818 0.312-3.5 0.773v8c0.682-0.461 1.994-0.773 3.5-0.773 0.946 0 1.815 0.123 2.5 0.329v0.944c0.682 0.461 1.994 0.773 3.5 0.773s2.818-0.312 3.5-0.773v-8c-0.682 0.461-1.994 0.773-3.5 0.773zM9.5 6.359v1.076l-0.212-0.064c-0.808-0.243-1.772-0.372-2.788-0.372-0.903 0-1.763 0.104-2.5 0.293v-5.964c0.685-0.206 1.554-0.329 2.5-0.329 1.195 0 2.267 0.197 3 0.508v4.851zM15 8.663c-0.557 0.213-1.434 0.384-2.5 0.384s-1.943-0.172-2.5-0.384v-5.907c0.745 0.191 1.602 0.292 2.5 0.292 0.903 0 1.763-0.104 2.5-0.293v5.909z"></path>
</symbol>
</defs>
</svg>