<svg aria-hidden="true" style="position: absolute; width: 0; height: 0; overflow: hidden;" version="1.1" xmlns="http://www.w3.org/2000/svg" xmlns:xlink="http://www.w3.org/1999/xlink">
<defs>
<symbol id="icon-flag4" viewBox="0 0 16 16">
<title>flag4</title>
<path d="M0 0h2v16h-2v-16z"></path>
<path d="M10 1c-0.5 0-0.75-0.25-1-0.5s-0.5-0.5-1-0.5h-5v10h5c0.5 0 0.75 0.25 1 0.5s0.5 0.5 1 0.5h5v-10h-5zM4 9v-8h4c0.078 0 0.086 0 0.293 0.207 0.056 0.056 0.12 0.119 0.191 0.185v7.658c-0.147-0.032-0.308-0.051-0.484-0.051h-4zM14 10h-4c-0.078 0-0.086 0-0.293-0.207-0.163-0.163-0.387-0.386-0.707-0.555v-7.476c0.262 0.138 0.589 0.238 1 0.238h4v8z"></path>
</symbol>
</defs>
</svg>