<svg aria-hidden="true" style="position: absolute; width: 0; height: 0; overflow: hidden;" version="1.1" xmlns="http://www.w3.org/2000/svg" xmlns:xlink="http://www.w3.org/1999/xlink">
<defs>
<symbol id="icon-flip-vertical2" viewBox="0 0 16 16">
<title>flip-vertical2</title>
<path d="M16 16l-16-7h16z"></path>
<path d="M16 2.875v-0.25h-6l-0.571 0.25z"></path>
<path d="M16 1.875v-0.25h-3.714l-0.571 0.25z"></path>
<path d="M16 0.875v-0.25h-1.429l-0.571 0.25z"></path>
<path d="M15.143 0.375h0.857v-0.25h-0.286z"></path>
<path d="M16 1.375v-0.25h-2.571l-0.571 0.25z"></path>
<path d="M16 3.375v-0.25h-7.143l-0.571 0.25z"></path>
<path d="M16 2.375v-0.25h-4.857l-0.571 0.25z"></path>
<path d="M16 6.375v-0.25h-14l-0.571 0.25z"></path>
<path d="M16 6.875v-0.25h-15.143l-0.571 0.25z"></path>
<path d="M16 5.875v-0.25h-12.857l-0.571 0.25z"></path>
<path d="M16 4.875v-0.25h-10.571l-0.571 0.25z"></path>
<path d="M16 4.375v-0.25h-9.429l-0.571 0.25z"></path>
<path d="M16 5.375v-0.25h-11.714l-0.571 0.25z"></path>
<path d="M16 3.875v-0.25h-8.286l-0.571 0.25z"></path>
</symbol>
</defs>
</svg>