<svg aria-hidden="true" style="position: absolute; width: 0; height: 0; overflow: hidden;" version="1.1" xmlns="http://www.w3.org/2000/svg" xmlns:xlink="http://www.w3.org/1999/xlink">
<defs>
<symbol id="icon-floppy-disks" viewBox="0 0 16 16">
<title>floppy-disks</title>
<path d="M11 6h1v2h-1v-2z"></path>
<path d="M13.5 5h-2.5v-2.5l-2.5-2.5h-8c-0.275 0-0.5 0.225-0.5 0.5v10c0 0.275 0.225 0.5 0.5 0.5h4.5v4.5c0 0.275 0.225 0.5 0.5 0.5h10c0.275 0 0.5-0.225 0.5-0.5v-8l-2.5-2.5zM13 5.5v3c0 0.275-0.225 0.5-0.5 0.5h-4c-0.275 0-0.5-0.225-0.5-0.5v-3h5zM5 10h-3v-2.5c0-0.276 0.224-0.5 0.5-0.5h2.5v3zM3.5 4c-0.275 0-0.5-0.225-0.5-0.5v-3h5v3c0 0.275-0.225 0.5-0.5 0.5h-4zM14 15h-7v-2.5c0-0.276 0.224-0.5 0.5-0.5h6c0.276 0 0.5 0.224 0.5 0.5v2.5z"></path>
<path d="M6 1h1v2h-1v-2z"></path>
</symbol>
</defs>
</svg>