<svg aria-hidden="true" style="position: absolute; width: 0; height: 0; overflow: hidden;" version="1.1" xmlns="http://www.w3.org/2000/svg" xmlns:xlink="http://www.w3.org/1999/xlink">
<defs>
<symbol id="icon-flower" viewBox="0 0 16 16">
<title>flower</title>
<path d="M15.801 5.902c-0.835-2.568-3.368-2.828-5.323-0.876 1.252-2.463 0.222-4.792-2.478-4.792s-3.73 2.329-2.478 4.792c-1.955-1.951-4.488-1.692-5.323 0.876s1.062 4.267 3.791 3.838c-2.46 1.257-2.996 3.746-0.811 5.333s4.386 0.308 4.821-2.42c0.435 2.728 2.637 4.007 4.822 2.42s1.648-4.077-0.812-5.333c2.729 0.429 4.626-1.27 3.792-3.838zM8 10.717c-1.277 0-2.313-1.035-2.313-2.313s1.035-2.313 2.313-2.313c1.277 0 2.313 1.035 2.313 2.313s-1.036 2.313-2.313 2.313z"></path>
</symbol>
</defs>
</svg>