<svg aria-hidden="true" style="position: absolute; width: 0; height: 0; overflow: hidden;" version="1.1" xmlns="http://www.w3.org/2000/svg" xmlns:xlink="http://www.w3.org/1999/xlink">
<defs>
<symbol id="icon-folder-search" viewBox="0 0 16 16">
<title>folder-search</title>
<path d="M14.5 2h-6.5l-0.5-1h-5.5l-1 2h14z"></path>
<path d="M14.13 11h1.17l0.7-7h-16l1 10h7.564c-1.639-0.59-2.814-2.16-2.814-4 0-2.343 1.907-4.25 4.25-4.25s4.25 1.907 4.25 4.25c0 0.339-0.041 0.674-0.12 1z"></path>
<path d="M15.672 14.277l-3.101-2.73c0.273-0.452 0.43-0.981 0.43-1.548 0-1.657-1.343-3-3-3s-3 1.343-3 3 1.343 3 3 3c0.566 0 1.096-0.157 1.548-0.43l2.73 3.101c0.359 0.417 0.971 0.44 1.359 0.051l0.086-0.086c0.389-0.389 0.366-1.001-0.051-1.359zM10 11.938c-1.070 0-1.938-0.867-1.938-1.938s0.867-1.938 1.938-1.938 1.938 0.867 1.938 1.938-0.867 1.938-1.938 1.938z"></path>
</symbol>
</defs>
</svg>