<svg aria-hidden="true" style="position: absolute; width: 0; height: 0; overflow: hidden;" version="1.1" xmlns="http://www.w3.org/2000/svg" xmlns:xlink="http://www.w3.org/1999/xlink">
<defs>
<symbol id="icon-folder-minus" viewBox="0 0 16 16">
<title>folder-minus</title>
<path d="M15 4h-14l1-2h5.5l0.5 1h6.5zM7.813 12.5c0 0.918 0.266 1.776 0.724 2.5h-7.537l-1-10h16l-0.399 3.988c-0.827-0.731-1.913-1.176-3.101-1.176-2.585 0-4.688 2.103-4.688 4.687zM12.5 9c-1.933 0-3.5 1.567-3.5 3.5s1.567 3.5 3.5 3.5 3.5-1.567 3.5-3.5-1.567-3.5-3.5-3.5zM10 13v-1h5v1h-5z"></path>
</symbol>
</defs>
</svg>