<svg aria-hidden="true" style="position: absolute; width: 0; height: 0; overflow: hidden;" version="1.1" xmlns="http://www.w3.org/2000/svg" xmlns:xlink="http://www.w3.org/1999/xlink">
<defs>
<symbol id="icon-folder3" viewBox="0 0 16 16">
<title>folder3</title>
<path d="M9 4l-2-2h-7v13h16v-11h-7zM8.586 5h6.414v0.125h-14v-0.25h7.461l0.125 0.125zM1 14v-0.125h14v0.125h-14zM1 13.625v-0.25h14v0.25h-14zM1 13.125v-0.25h14v0.25h-14zM1 12.625v-0.25h14v0.25h-14zM1 12.125v-0.25h14v0.25h-14zM1 11.625v-0.25h14v0.25h-14zM1 11.125v-0.25h14v0.25h-14zM1 10.625v-0.25h14v0.25h-14zM1 10.125v-0.25h14v0.25h-14zM1 9.625v-0.25h14v0.25h-14zM1 9.125v-0.25h14v0.25h-14zM1 8.625v-0.25h14v0.25h-14zM1 8.125v-0.25h14v0.25h-14zM1 7.625v-0.25h14v0.25h-14zM1 7.125v-0.25h14v0.25h-14zM1 6.625v-0.25h14v0.25h-14zM1 6.125v-0.25h14v0.25h-14zM1 5.625v-0.25h14v0.25h-14zM6.586 3l0.125 0.125h-5.711v-0.125h5.586zM6.961 3.375l0.25 0.25h-6.211v-0.25h5.961zM7.461 3.875l0.25 0.25h-6.711v-0.25h6.461zM7.961 4.375l0.25 0.25h-7.211v-0.25h6.961z"></path>
</symbol>
</defs>
</svg>