<svg aria-hidden="true" style="position: absolute; width: 0; height: 0; overflow: hidden;" version="1.1" xmlns="http://www.w3.org/2000/svg" xmlns:xlink="http://www.w3.org/1999/xlink">
<defs>
<symbol id="icon-furniture" viewBox="0 0 16 16">
<title>furniture</title>
<path d="M14 6c-1.105 0-2 0.895-2 2v2h-8v-2c0-1.105-0.895-2-2-2s-2 0.895-2 2v4c0 1.105 0.895 2 2 2v2h1l0.5-2h9l0.5 2h1v-2c1.105 0 2-0.895 2-2v-4c0-1.105-0.895-2-2-2z"></path>
<path d="M5 7.688v1.313h6v-1.313c0-1.642 1-2.688 2.964-2.687-0.243-1.694-1.704-3-3.464-3h-5c-1.76 0-3.221 1.306-3.464 3 1.964-0 2.964 1.045 2.964 2.687z"></path>
</symbol>
</defs>
</svg>