<svg aria-hidden="true" style="position: absolute; width: 0; height: 0; overflow: hidden;" version="1.1" xmlns="http://www.w3.org/2000/svg" xmlns:xlink="http://www.w3.org/1999/xlink">
<defs>
<symbol id="icon-gamepad3" viewBox="0 0 20 16">
<title>gamepad3</title>
<path d="M15.5 3.025v-0.025h-10.5c-2.761 0-5 2.239-5 5s2.239 5 5 5c1.636 0 3.088-0.786 4-2h2c0.912 1.214 2.364 2 4 2 2.761 0 5-2.239 5-5 0-2.593-1.973-4.724-4.5-4.975zM8 9h-2v2h-2v-2h-2v-2h2v-2h2v2h2v2zM14 9c-0.552 0-1-0.448-1-1s0.448-1 1-1 1 0.448 1 1-0.448 1-1 1zM17 9c-0.552 0-1-0.448-1-1s0.448-1 1-1 1 0.448 1 1c0 0.552-0.448 1-1 1z"></path>
</symbol>
</defs>
</svg>