<svg aria-hidden="true" style="position: absolute; width: 0; height: 0; overflow: hidden;" version="1.1" xmlns="http://www.w3.org/2000/svg" xmlns:xlink="http://www.w3.org/1999/xlink">
<defs>
<symbol id="icon-gamepad" viewBox="0 0 16 16">
<title>gamepad</title>
<path d="M5 5h-1v1h-1v1h1v1h1v-1h1v-1h-1zM10 5.75c0-0.414 0.336-0.75 0.75-0.75s0.75 0.336 0.75 0.75c0 0.414-0.336 0.75-0.75 0.75s-0.75-0.336-0.75-0.75zM11.5 7.25c0-0.414 0.336-0.75 0.75-0.75s0.75 0.336 0.75 0.75c0 0.414-0.336 0.75-0.75 0.75s-0.75-0.336-0.75-0.75zM11.554 2.685c-1.816 0-2.099 1.076-3.554 1.076s-1.738-1.076-3.554-1.076c-2.929 0-4.446 3.586-4.446 6.15 0 2.427 0.228 4.192 1.136 4.44s2.065-0.731 3.193-1.793c1.128-1.062 1.318-0.993 2.226-0.993l1.445 0.032 1.445-0.032c0.908 0 1.098-0.069 2.226 0.993s2.285 2.041 3.193 1.793c0.908-0.248 1.136-2.014 1.136-4.44 0-2.565-1.517-6.15-4.446-6.15zM4.5 9c-1.381 0-2.5-1.119-2.5-2.5s1.119-2.5 2.5-2.5 2.5 1.119 2.5 2.5-1.119 2.5-2.5 2.5zM11.5 9c-1.381 0-2.5-1.119-2.5-2.5s1.119-2.5 2.5-2.5 2.5 1.119 2.5 2.5-1.119 2.5-2.5 2.5z"></path>
</symbol>
</defs>
</svg>