<svg aria-hidden="true" style="position: absolute; width: 0; height: 0; overflow: hidden;" version="1.1" xmlns="http://www.w3.org/2000/svg" xmlns:xlink="http://www.w3.org/1999/xlink">
<defs>
<symbol id="icon-golf2" viewBox="0 0 16 16">
<title>golf2</title>
<path d="M16 8.5c0 0.828-0.672 1.5-1.5 1.5s-1.5-0.672-1.5-1.5 0.672-1.5 1.5-1.5c0.828 0 1.5 0.672 1.5 1.5z"></path>
<path d="M4 1v6l7-3-7-3z"></path>
<path d="M6 9c-0.701 0-1.374 0.070-2 0.199v3.801h-1v-12.5c0-0.276-0.224-0.5-0.5-0.5s-0.5 0.224-0.5 0.5v9.392c-1.227 0.641-2 1.572-2 2.608 0 1.933 2.686 3.5 6 3.5s6-1.567 6-3.5-2.686-3.5-6-3.5zM7 14c-1.105 0-2-0.672-2-1.5s0.895-1.5 2-1.5c1.105 0 2 0.672 2 1.5s-0.895 1.5-2 1.5z"></path>
</symbol>
</defs>
</svg>