<svg aria-hidden="true" style="position: absolute; width: 0; height: 0; overflow: hidden;" version="1.1" xmlns="http://www.w3.org/2000/svg" xmlns:xlink="http://www.w3.org/1999/xlink">
<defs>
<symbol id="icon-grid5" viewBox="0 0 16 16">
<title>grid5</title>
<path d="M14 6h-2c-0.55 0-1 0.45-1 1v2c0 0.55 0.45 1 1 1h2c0.55 0 1-0.45 1-1v-2c0-0.55-0.45-1-1-1zM14 9h-2v-2h2v2z"></path>
<path d="M9 6h-2c-0.55 0-1 0.45-1 1v2c0 0.55 0.45 1 1 1h2c0.55 0 1-0.45 1-1v-2c0-0.55-0.45-1-1-1zM9 9h-2v-2h2v2z"></path>
<path d="M4 6h-2c-0.55 0-1 0.45-1 1v2c0 0.55 0.45 1 1 1h2c0.55 0 1-0.45 1-1v-2c0-0.55-0.45-1-1-1zM4 9h-2v-2h2v2z"></path>
<path d="M14 1h-2c-0.55 0-1 0.45-1 1v2c0 0.55 0.45 1 1 1h2c0.55 0 1-0.45 1-1v-2c0-0.55-0.45-1-1-1zM14 4h-2v-2h2v2z"></path>
<path d="M9 1h-2c-0.55 0-1 0.45-1 1v2c0 0.55 0.45 1 1 1h2c0.55 0 1-0.45 1-1v-2c0-0.55-0.45-1-1-1zM9 4h-2v-2h2v2z"></path>
<path d="M4 1h-2c-0.55 0-1 0.45-1 1v2c0 0.55 0.45 1 1 1h2c0.55 0 1-0.45 1-1v-2c0-0.55-0.45-1-1-1zM4 4h-2v-2h2v2z"></path>
<path d="M14 11h-2c-0.55 0-1 0.45-1 1v2c0 0.55 0.45 1 1 1h2c0.55 0 1-0.45 1-1v-2c0-0.55-0.45-1-1-1zM14 14h-2v-2h2v2z"></path>
<path d="M9 11h-2c-0.55 0-1 0.45-1 1v2c0 0.55 0.45 1 1 1h2c0.55 0 1-0.45 1-1v-2c0-0.55-0.45-1-1-1zM9 14h-2v-2h2v2z"></path>
<path d="M4 11h-2c-0.55 0-1 0.45-1 1v2c0 0.55 0.45 1 1 1h2c0.55 0 1-0.45 1-1v-2c0-0.55-0.45-1-1-1zM4 14h-2v-2h2v2z"></path>
</symbol>
</defs>
</svg>