<svg aria-hidden="true" style="position: absolute; width: 0; height: 0; overflow: hidden;" version="1.1" xmlns="http://www.w3.org/2000/svg" xmlns:xlink="http://www.w3.org/1999/xlink">
<defs>
<symbol id="icon-gun-forbidden" viewBox="0 0 16 16">
<title>gun-forbidden</title>
<path d="M6.219 7h-5.094l-0.25-2h-0.875v-2h9.219zM16 6v-2c0-0.55-0.45-1-1-1h-2.313l2.25-3h-1.875l-10.5 14h1.875l3.001-4.001c0.020 0.001 0.041 0.001 0.061 0.001h2.857l0.921 3.222-0.071 0.071c-0.389 0.389-0.257 0.707 0.293 0.707h4.5v-2l-1.6-4c-0.53-1.325 1.1-2 1.6-2zM8.188 9l0.75-1h0.848l0.286 1h-1.884z"></path>
</symbol>
</defs>
</svg>