<svg aria-hidden="true" style="position: absolute; width: 0; height: 0; overflow: hidden;" version="1.1" xmlns="http://www.w3.org/2000/svg" xmlns:xlink="http://www.w3.org/1999/xlink">
<defs>
<symbol id="icon-hamburger" viewBox="0 0 16 16">
<title>hamburger</title>
<path d="M8 15c4.418 0 8-1.343 8-3h-16c0 1.657 3.582 3 8 3zM14.5 6h-13c-0.825 0-1.5 0.675-1.5 1.5s0.675 1.5 1.5 1.5h13c0.825 0 1.5-0.675 1.5-1.5s-0.675-1.5-1.5-1.5zM8 1c-4.418 0-8 1.656-8 3.313v0.688h16v-0.688c0-1.657-3.582-3.313-8-3.313zM2.5 4c-0.276 0-0.5-0.224-0.5-0.5s0.224-0.5 0.5-0.5 0.5 0.224 0.5 0.5-0.224 0.5-0.5 0.5zM4.5 3c-0.276 0-0.5-0.224-0.5-0.5s0.224-0.5 0.5-0.5 0.5 0.224 0.5 0.5-0.224 0.5-0.5 0.5zM6.5 4c-0.276 0-0.5-0.224-0.5-0.5s0.224-0.5 0.5-0.5 0.5 0.224 0.5 0.5-0.224 0.5-0.5 0.5zM9.5 4c-0.276 0-0.5-0.224-0.5-0.5s0.224-0.5 0.5-0.5 0.5 0.224 0.5 0.5-0.224 0.5-0.5 0.5zM11.5 3c-0.276 0-0.5-0.224-0.5-0.5s0.224-0.5 0.5-0.5 0.5 0.224 0.5 0.5-0.224 0.5-0.5 0.5zM13.5 4c-0.276 0-0.5-0.224-0.5-0.5s0.224-0.5 0.5-0.5 0.5 0.224 0.5 0.5-0.224 0.5-0.5 0.5zM0 10h16v1h-16z"></path>
</symbol>
</defs>
</svg>