<svg aria-hidden="true" style="position: absolute; width: 0; height: 0; overflow: hidden;" version="1.1" xmlns="http://www.w3.org/2000/svg" xmlns:xlink="http://www.w3.org/1999/xlink">
<defs>
<symbol id="icon-headset" viewBox="0 0 16 16">
<title>headset</title>
<path d="M12.95 2.050c-1.322-1.322-3.080-2.050-4.95-2.050s-3.628 0.728-4.95 2.050-2.050 3.080-2.050 4.95v3.5c0 0.828 0.672 1.5 1.5 1.5s1.5-0.672 1.5-1.5v-2c0-0.828-0.672-1.5-1.5-1.5-0.168 0-0.329 0.028-0.479 0.079v-0.079c0.255-3.075 2.839-5.5 5.979-5.5s5.724 2.425 5.979 5.5v0.079c-0.15-0.051-0.311-0.079-0.479-0.079-0.828 0-1.5 0.672-1.5 1.5v2c0 0.828 0.672 1.5 1.5 1.5 0.175 0 0.344-0.030 0.5-0.086v1.586c0 0.276-0.224 0.5-0.5 0.5h-2.586c-0.206-0.583-0.761-1-1.414-1-0.828 0-1.5 0.672-1.5 1.5s0.672 1.5 1.5 1.5c0.653 0 1.208-0.417 1.414-1h2.586c0.827 0 1.5-0.673 1.5-1.5v-6.5c0-1.87-0.728-3.628-2.050-4.95z"></path>
</symbol>
</defs>
</svg>