<svg aria-hidden="true" style="position: absolute; width: 0; height: 0; overflow: hidden;" version="1.1" xmlns="http://www.w3.org/2000/svg" xmlns:xlink="http://www.w3.org/1999/xlink">
<defs>
<symbol id="icon-heart-broken" viewBox="0 0 16 16">
<title>heart-broken</title>
<path d="M16 5.596c0 1.349-0.582 2.563-1.508 3.404h0.008l-5 5c-0.5 0.5-1 1-1.5 1s-1-0.5-1.5-1l-4.992-5c-0.926-0.841-1.508-2.054-1.508-3.404 0-2.538 2.058-4.596 4.596-4.596 0.866 0 1.677 0.24 2.368 0.657l-1.465 2.343 3.5 2-2 5 5.5-6-3.5-2 1.233-1.849c0.374-0.098 0.766-0.151 1.171-0.151 2.538 0 4.596 2.058 4.596 4.596z"></path>
</symbol>
</defs>
</svg>