<svg aria-hidden="true" style="position: absolute; width: 0; height: 0; overflow: hidden;" version="1.1" xmlns="http://www.w3.org/2000/svg" xmlns:xlink="http://www.w3.org/1999/xlink">
<defs>
<symbol id="icon-height" viewBox="0 0 16 16">
<title>height</title>
<path d="M12 1.5c0 0.828-0.672 1.5-1.5 1.5s-1.5-0.672-1.5-1.5c0-0.828 0.672-1.5 1.5-1.5s1.5 0.672 1.5 1.5z"></path>
<path d="M12 4h-3c-0.552 0-1 0.448-1 1v5h1v6h1.25v-6h0.5v6h1.25v-6h1v-5c0-0.552-0.448-1-1-1z"></path>
<path d="M6 1v-1h-5v16h5v-1h-4v-2h2v-1h-2v-2h2v-1h-2v-2h2v-1h-2v-2h2v-1h-2v-2z"></path>
</symbol>
</defs>
</svg>