<svg aria-hidden="true" style="position: absolute; width: 0; height: 0; overflow: hidden;" version="1.1" xmlns="http://www.w3.org/2000/svg" xmlns:xlink="http://www.w3.org/1999/xlink">
<defs>
<symbol id="icon-image4" viewBox="0 0 16 16">
<title>image4</title>
<path d="M13.5 6l-3.5 3.5-3-3-5 5v1.5h12v-7z"></path>
<path d="M14.5 2c0.271 0 0.5 0.229 0.5 0.5v11c0 0.271-0.229 0.5-0.5 0.5h-13c-0.271 0-0.5-0.229-0.5-0.5v-11c0-0.271 0.229-0.5 0.5-0.5h13zM14.5 1h-13c-0.825 0-1.5 0.675-1.5 1.5v11c0 0.825 0.675 1.5 1.5 1.5h13c0.825 0 1.5-0.675 1.5-1.5v-11c0-0.825-0.675-1.5-1.5-1.5v0z"></path>
</symbol>
</defs>
</svg>