<svg aria-hidden="true" style="position: absolute; width: 0; height: 0; overflow: hidden;" version="1.1" xmlns="http://www.w3.org/2000/svg" xmlns:xlink="http://www.w3.org/1999/xlink">
<defs>
<symbol id="icon-info2" viewBox="0 0 16 16">
<title>info2</title>
<path d="M8 0c-4.418 0-8 3.582-8 8s3.582 8 8 8 8-3.582 8-8-3.582-8-8-8zM7 3.75c0-0.413 0.338-0.75 0.75-0.75h0.5c0.412 0 0.75 0.337 0.75 0.75v0.5c0 0.412-0.338 0.75-0.75 0.75h-0.5c-0.412 0-0.75-0.338-0.75-0.75v-0.5zM10 13h-4v-1h1v-4h-1v-1h3v5h1v1z"></path>
</symbol>
</defs>
</svg>