<svg aria-hidden="true" style="position: absolute; width: 0; height: 0; overflow: hidden;" version="1.1" xmlns="http://www.w3.org/2000/svg" xmlns:xlink="http://www.w3.org/1999/xlink">
<defs>
<symbol id="icon-interset" viewBox="0 0 16 16">
<title>interset</title>
<path d="M11 4v-4h-11v11h4v5h12v-12h-5zM10 6.125h-4v-0.125h4v0.125zM10 10h-4v-0.125h4v0.125zM10 9.625h-4v-0.25h4v0.25zM10 9.125h-4v-0.25h4v0.25zM10 8.625h-4v-0.25h4v0.25zM10 8.125h-4v-0.25h4v0.25zM10 7.625h-4v-0.25h4v0.25zM10 7.125h-4v-0.25h4v0.25zM10 6.625h-4v-0.25h4v0.25zM4 10h-3v-9h9v3h-6v6zM15 15h-10v-3h7v-7h3v10z"></path>
</symbol>
</defs>
</svg>