<svg aria-hidden="true" style="position: absolute; width: 0; height: 0; overflow: hidden;" version="1.1" xmlns="http://www.w3.org/2000/svg" xmlns:xlink="http://www.w3.org/1999/xlink">
<defs>
<symbol id="icon-key4" viewBox="0 0 16 16">
<title>key4</title>
<path d="M11.438 0c-2.516 0-4.563 2.047-4.563 4.563 0 1.056 0.36 2.029 0.965 2.802l-6.675 6.675c-0.22 0.22-0.22 0.576 0 0.795 0.11 0.11 0.254 0.165 0.398 0.165s0.288-0.055 0.398-0.165l0.54-0.54 1.54 1.54c0.11 0.11 0.254 0.165 0.398 0.165s0.288-0.055 0.398-0.165c0.22-0.22 0.22-0.576 0-0.795l-1.54-1.54 1.204-1.204 1.54 1.54c0.11 0.11 0.254 0.165 0.398 0.165s0.288-0.055 0.398-0.165c0.22-0.22 0.22-0.576 0-0.795l-1.54-1.54 3.34-3.34c0.774 0.604 1.747 0.965 2.802 0.965 2.516 0 4.562-2.047 4.562-4.563s-2.047-4.563-4.563-4.563zM11.438 8c-1.895 0-3.438-1.542-3.438-3.438s1.542-3.438 3.438-3.438 3.438 1.542 3.438 3.438-1.542 3.438-3.438 3.438z"></path>
</symbol>
</defs>
</svg>