<svg aria-hidden="true" style="position: absolute; width: 0; height: 0; overflow: hidden;" version="1.1" xmlns="http://www.w3.org/2000/svg" xmlns:xlink="http://www.w3.org/1999/xlink">
<defs>
<symbol id="icon-key5" viewBox="0 0 16 16">
<title>key5</title>
<path d="M15 6h-7.535c-0.692-1.196-1.984-2-3.465-2-2.209 0-4 1.791-4 4s1.791 4 4 4c1.481 0 2.773-0.804 3.465-2h0.535l1-1h1v1h1l1-1h1v1h1l2-2-1-2zM3 9.414c-0.781 0-1.414-0.633-1.414-1.414s0.633-1.414 1.414-1.414 1.414 0.633 1.414 1.414c0 0.781-0.633 1.414-1.414 1.414zM8 7.5v-0.5h6l0.25 0.5h-6.25z"></path>
</symbol>
</defs>
</svg>