<svg aria-hidden="true" style="position: absolute; width: 0; height: 0; overflow: hidden;" version="1.1" xmlns="http://www.w3.org/2000/svg" xmlns:xlink="http://www.w3.org/1999/xlink">
<defs>
<symbol id="icon-ladder" viewBox="0 0 16 16">
<title>ladder</title>
<path d="M12 0c-0.552 0-1 0.448-1 1v2h-6v-2c0-0.552-0.448-1-1-1s-1 0.448-1 1v14c0 0.552 0.448 1 1 1s1-0.448 1-1v-2h6v2c0 0.552 0.448 1 1 1s1-0.448 1-1v-14c0-0.552-0.448-1-1-1zM11 11h-6v-2h6v2zM11 7h-6v-2h6v2z"></path>
</symbol>
</defs>
</svg>