<svg aria-hidden="true" style="position: absolute; width: 0; height: 0; overflow: hidden;" version="1.1" xmlns="http://www.w3.org/2000/svg" xmlns:xlink="http://www.w3.org/1999/xlink">
<defs>
<symbol id="icon-lan3" viewBox="0 0 20 16">
<title>lan3</title>
<path d="M13 11.5l1.5 1.5 5-5-5-5-1.5 1.5 3.5 3.5-3.5 3.5z"></path>
<path d="M7 4.5l-1.5-1.5-5 5 5 5 1.5-1.5-3.5-3.5 3.5-3.5z"></path>
<path d="M8 8c0 0.552-0.448 1-1 1s-1-0.448-1-1c0-0.552 0.448-1 1-1s1 0.448 1 1z"></path>
<path d="M11 8c0 0.552-0.448 1-1 1s-1-0.448-1-1c0-0.552 0.448-1 1-1s1 0.448 1 1z"></path>
<path d="M14 8c0 0.552-0.448 1-1 1s-1-0.448-1-1c0-0.552 0.448-1 1-1s1 0.448 1 1z"></path>
</symbol>
</defs>
</svg>