<svg aria-hidden="true" style="position: absolute; width: 0; height: 0; overflow: hidden;" version="1.1" xmlns="http://www.w3.org/2000/svg" xmlns:xlink="http://www.w3.org/1999/xlink">
<defs>
<symbol id="icon-laundry" viewBox="0 0 16 16">
<title>laundry</title>
<path d="M14 0h-12c-0.55 0-1 0.45-1 1v14c0 0.55 0.45 1 1 1h12c0.55 0 1-0.45 1-1v-14c0-0.55-0.45-1-1-1zM10 1c0.552 0 1 0.448 1 1s-0.448 1-1 1-1-0.448-1-1 0.448-1 1-1zM2 1.5c0-0.276 0.224-0.5 0.5-0.5h3c0.276 0 0.5 0.224 0.5 0.5s-0.224 0.5-0.5 0.5h-3c-0.276 0-0.5-0.224-0.5-0.5zM8 14c-2.209 0-4-1.791-4-4s1.791-4 4-4 4 1.791 4 4-1.791 4-4 4zM13 3c-0.552 0-1-0.448-1-1s0.448-1 1-1 1 0.448 1 1-0.448 1-1 1z"></path>
<path d="M8 10c-0.5-1.5-2.5-1.5-3 0 0 1.657 1.343 3 3 3s3-1.343 3-3c-0.5 1.5-2.5 1.5-3 0z"></path>
</symbol>
</defs>
</svg>