<svg aria-hidden="true" style="position: absolute; width: 0; height: 0; overflow: hidden;" version="1.1" xmlns="http://www.w3.org/2000/svg" xmlns:xlink="http://www.w3.org/1999/xlink">
<defs>
<symbol id="icon-link5" viewBox="0 0 17 16">
<title>link5</title>
<path d="M7 12h-3c-2.206 0-4-1.794-4-4s1.794-4 4-4h3c0.552 0 1 0.448 1 1s-0.448 1-1 1h-3c-1.103 0-2 0.897-2 2s0.897 2 2 2h3c0.552 0 1 0.448 1 1s-0.448 1-1 1z"></path>
<path d="M13 12h-3c-0.552 0-1-0.448-1-1s0.448-1 1-1h3c1.103 0 2-0.897 2-2s-0.897-2-2-2h-3c-0.552 0-1-0.448-1-1s0.448-1 1-1h3c2.206 0 4 1.794 4 4s-1.794 4-4 4z"></path>
<path d="M11 9h-5c-0.552 0-1-0.448-1-1s0.448-1 1-1h5c0.552 0 1 0.448 1 1s-0.448 1-1 1z"></path>
</symbol>
</defs>
</svg>