<svg aria-hidden="true" style="position: absolute; width: 0; height: 0; overflow: hidden;" version="1.1" xmlns="http://www.w3.org/2000/svg" xmlns:xlink="http://www.w3.org/1999/xlink">
<defs>
<symbol id="icon-link4" viewBox="0 0 16 16">
<title>link4</title>
<path d="M8.586 10.086l-3.365 3.365c-0.354 0.354-0.829 0.549-1.337 0.549s-0.982-0.195-1.335-0.548c-0.354-0.354-0.548-0.828-0.548-1.336s0.195-0.983 0.549-1.337l3.365-3.365-1.414-1.414-3.365 3.365c-1.513 1.513-1.514 3.989-0.001 5.501 0.756 0.756 1.753 1.134 2.75 1.134s1.995-0.378 2.752-1.135l3.365-3.365-1.414-1.414z"></path>
<path d="M10.086 8.586l3.365-3.365c0.354-0.354 0.549-0.829 0.549-1.337s-0.195-0.982-0.548-1.335c-0.354-0.354-0.828-0.548-1.336-0.548s-0.983 0.195-1.337 0.549l-3.365 3.365-1.414-1.414 3.365-3.365c1.513-1.513 3.989-1.514 5.501-0.001 0.756 0.756 1.134 1.753 1.134 2.75s-0.378 1.995-1.135 2.752l-3.365 3.365-1.414-1.414z"></path>
<path d="M6.5 10.5l-1-1 4-4 1 1-4 4z"></path>
</symbol>
</defs>
</svg>