<svg aria-hidden="true" style="position: absolute; width: 0; height: 0; overflow: hidden;" version="1.1" xmlns="http://www.w3.org/2000/svg" xmlns:xlink="http://www.w3.org/1999/xlink">
<defs>
<symbol id="icon-lips" viewBox="0 0 16 16">
<title>lips</title>
<path d="M16 6.877l-0.157-0.005c-1.935-0.112-3.646-2.091-5.593-2.091-2 0-2.25 0.75-2.25 0.75s-0.25-0.75-2.25-0.75c-1.948 0-3.658 1.979-5.593 2.091l-0.157 0.005c0 0 5 0.904 8 0.904s8-0.904 8-0.904zM8 9.219c-2.637 0-7-1.531-7.793-2.138 2.25 1.722 3.894 4.794 7.793 4.794s5.543-3.073 7.793-4.794c-0.793 0.607-5.156 2.138-7.793 2.138z"></path>
</symbol>
</defs>
</svg>