<svg aria-hidden="true" style="position: absolute; width: 0; height: 0; overflow: hidden;" version="1.1" xmlns="http://www.w3.org/2000/svg" xmlns:xlink="http://www.w3.org/1999/xlink">
<defs>
<symbol id="icon-loop2" viewBox="0 0 16 16">
<title>loop2</title>
<path d="M8 3.25c-1.566 0-2.962 0.731-3.849 1.863l-1.2-0.9c1.161-1.496 2.992-2.464 5.048-2.464v-1.75l2.5 2.5-2.5 2.5v-1.75zM8 12.75c1.566 0 2.962-0.731 3.849-1.863l1.2 0.9c-1.161 1.496-2.992 2.464-5.048 2.464v1.75l-2.5-2.5 2.5-2.5v1.75zM3.15 8c0 1.568 0.78 2.961 1.98 3.827l-0.9 1.2c-1.564-1.139-2.58-2.968-2.58-5.026h-1.65l2.5-2.5 2.5 2.5h-1.85zM14.35 8h1.65l-2.5 2.5-2.5-2.5h1.85c0-1.568-0.78-2.961-1.98-3.827l0.9-1.2c1.564 1.139 2.58 2.968 2.58 5.026z"></path>
</symbol>
</defs>
</svg>