<svg aria-hidden="true" style="position: absolute; width: 0; height: 0; overflow: hidden;" version="1.1" xmlns="http://www.w3.org/2000/svg" xmlns:xlink="http://www.w3.org/1999/xlink">
<defs>
<symbol id="icon-magnet" viewBox="0 0 16 16">
<title>magnet</title>
<path d="M6 6v4c0 1.103 0.897 2 2 2s2-0.897 2-2v-4h4v4c0 3.314-2.686 6-6 6s-6-2.686-6-6v-4h4z"></path>
<path d="M14 2.75v2.25h-4v-2.25c0-0.413 0.338-0.75 0.75-0.75h2.5c0.412 0 0.75 0.337 0.75 0.75z"></path>
<path d="M6 2.75v2.25h-4v-2.25c0-0.413 0.337-0.75 0.75-0.75h2.5c0.412 0 0.75 0.337 0.75 0.75z"></path>
</symbol>
</defs>
</svg>