<svg aria-hidden="true" style="position: absolute; width: 0; height: 0; overflow: hidden;" version="1.1" xmlns="http://www.w3.org/2000/svg" xmlns:xlink="http://www.w3.org/1999/xlink">
<defs>
<symbol id="icon-mailbox" viewBox="0 0 16 16">
<title>mailbox</title>
<path d="M15.5 3h-6c-0.276 0-0.5 0.224-0.5 0.5s0.224 0.5 0.5 0.5h5.5v7h-12v-7h1.5c0.276 0 0.5-0.224 0.5-0.5s-0.224-0.5-0.5-0.5h-4c-0.276 0-0.5 0.224-0.5 0.5v8c0 0.276 0.224 0.5 0.5 0.5h4.5v3.5c0 0.276 0.224 0.5 0.5 0.5h4c0.276 0 0.5-0.224 0.5-0.5v-3.5h5.5c0.276 0 0.5-0.224 0.5-0.5v-8c0-0.276-0.224-0.5-0.5-0.5zM1 4h1v7h-1v-7zM9 15h-3v-3h3v3z"></path>
<path d="M7.5 8c0.828 0 1.5-0.672 1.5-1.5 0-0.653-0.417-1.208-1-1.414v-3.086h2v-2h-4v6.5c0 0.828 0.672 1.5 1.5 1.5z"></path>
</symbol>
</defs>
</svg>