<svg aria-hidden="true" style="position: absolute; width: 0; height: 0; overflow: hidden;" version="1.1" xmlns="http://www.w3.org/2000/svg" xmlns:xlink="http://www.w3.org/1999/xlink">
<defs>
<symbol id="icon-male" viewBox="0 0 16 16">
<title>male</title>
<path d="M10 0v2h2.586l-3.829 3.829c-0.79-0.524-1.738-0.829-2.757-0.829-2.761 0-5 2.239-5 5s2.239 5 5 5 5-2.239 5-5c0-1.019-0.305-1.967-0.829-2.757l3.829-3.829v2.586h2v-6h-6zM6 13.3c-1.823 0-3.3-1.477-3.3-3.3s1.477-3.3 3.3-3.3c1.822 0 3.3 1.477 3.3 3.3s-1.477 3.3-3.3 3.3z"></path>
</symbol>
</defs>
</svg>