<svg aria-hidden="true" style="position: absolute; width: 0; height: 0; overflow: hidden;" version="1.1" xmlns="http://www.w3.org/2000/svg" xmlns:xlink="http://www.w3.org/1999/xlink">
<defs>
<symbol id="icon-markup" viewBox="0 0 24 16">
<title>markup</title>
<path d="M17 7v-2h-2v-2h-2v2h-2v-2h-2v2h-2v2h2v2h-2v2h2v2h2v-2h2v2h2v-2h2v-2h-2v-2h2zM13 9h-2v-2h2v2z"></path>
<path d="M8.707 1.707l-1.414-1.414-7.293 7.293v0.828l7.293 7.293 1.414-1.414-6.293-6.293z"></path>
<path d="M15.293 1.707l1.414-1.414 7.293 7.293v0.828l-7.293 7.293-1.414-1.414 6.293-6.293z"></path>
</symbol>
</defs>
</svg>