<svg aria-hidden="true" style="position: absolute; width: 0; height: 0; overflow: hidden;" version="1.1" xmlns="http://www.w3.org/2000/svg" xmlns:xlink="http://www.w3.org/1999/xlink">
<defs>
<symbol id="icon-meter-medium" viewBox="0 0 16 16">
<title>meter-medium</title>
<path d="M8 4c-4.418 0-8 3.582-8 8h1c0-3.314 2.686-6 6-6 0.15 0 0.299 0.006 0.446 0.017l-0.446 4.251h0.001c-0.598 0.346-1.001 0.992-1.001 1.732 0 1.105 0.895 2 2 2s2-0.895 2-2c0-0.741-0.403-1.387-1.001-1.732h0.001l-0.426-4.059c2.55 0.692 4.426 3.022 4.426 5.791h3c0-4.418-3.582-8-8-8z"></path>
</symbol>
</defs>
</svg>