<svg aria-hidden="true" style="position: absolute; width: 0; height: 0; overflow: hidden;" version="1.1" xmlns="http://www.w3.org/2000/svg" xmlns:xlink="http://www.w3.org/1999/xlink">
<defs>
<symbol id="icon-mobile3" viewBox="0 0 16 16">
<title>mobile3</title>
<path d="M10.5 0c-0.276 0-0.5 0.224-0.5 0.5v1.5h-5.5c-0.276 0-0.5 0.224-0.5 0.5v13c0 0.276 0.224 0.5 0.5 0.5h6c0.276 0 0.5-0.224 0.5-0.5v-15c0-0.276-0.224-0.5-0.5-0.5zM6 15h-1v-1h1v1zM6 13h-1v-1h1v1zM6 11h-1v-1h1v1zM8 15h-1v-1h1v1zM8 13h-1v-1h1v1zM8 11h-1v-1h1v1zM10 15h-1v-1h1v1zM10 13h-1v-1h1v1zM10 11h-1v-1h1v1zM10 9h-5v-6h5v6z"></path>
</symbol>
</defs>
</svg>