<svg aria-hidden="true" style="position: absolute; width: 0; height: 0; overflow: hidden;" version="1.1" xmlns="http://www.w3.org/2000/svg" xmlns:xlink="http://www.w3.org/1999/xlink">
<defs>
<symbol id="icon-mouse-right" viewBox="0 0 16 16">
<title>mouse-right</title>
<path d="M7.5 1c-1.5 0-4.5 0.584-4.5 3v6.625c0 2.416 2.015 4.375 4.5 4.375s4.5-1.959 4.5-4.375v-6.625c0-2.416-3-3-4.5-3zM4 4c0-0.343 0.093-0.63 0.284-0.877 0.185-0.24 0.466-0.451 0.835-0.627 0.587-0.28 1.292-0.445 1.881-0.496v4h-3v-2zM11 10.625c0 0.896-0.361 1.74-1.015 2.377-0.321 0.313-0.696 0.558-1.114 0.73-0.434 0.178-0.895 0.269-1.371 0.269s-0.938-0.090-1.371-0.269c-0.417-0.172-0.792-0.417-1.114-0.73-0.655-0.636-1.015-1.48-1.015-2.377v-3.625h7v3.625z"></path>
</symbol>
</defs>
</svg>