<svg aria-hidden="true" style="position: absolute; width: 0; height: 0; overflow: hidden;" version="1.1" xmlns="http://www.w3.org/2000/svg" xmlns:xlink="http://www.w3.org/1999/xlink">
<defs>
<symbol id="icon-movie" viewBox="0 0 16 16">
<title>movie</title>
<path d="M8 0c-4.418 0-8 3.582-8 8s3.582 8 8 8 8-3.582 8-8-3.582-8-8-8zM8 1.775c0.943 0 1.708 0.765 1.708 1.708s-0.765 1.708-1.708 1.708c-0.943 0-1.708-0.765-1.708-1.708s0.765-1.708 1.708-1.708zM1.806 6.48c0-0.943 0.765-1.708 1.708-1.708s1.708 0.765 1.708 1.708c0 0.943-0.765 1.708-1.708 1.708s-1.708-0.765-1.708-1.708zM5.288 13.208c-0.943 0-1.708-0.765-1.708-1.708s0.765-1.708 1.708-1.708c0.943 0 1.708 0.765 1.708 1.708s-0.765 1.708-1.708 1.708zM8 9c-0.552 0-1-0.448-1-1s0.448-1 1-1c0.552 0 1 0.448 1 1s-0.448 1-1 1zM10.712 13.218c-0.943 0-1.708-0.765-1.708-1.708s0.765-1.708 1.708-1.708c0.943 0 1.708 0.765 1.708 1.708s-0.765 1.708-1.708 1.708zM12.486 8.198c-0.943 0-1.708-0.765-1.708-1.708s0.765-1.708 1.708-1.708c0.943 0 1.708 0.765 1.708 1.708s-0.765 1.708-1.708 1.708z"></path>
</symbol>
</defs>
</svg>