<svg aria-hidden="true" style="position: absolute; width: 0; height: 0; overflow: hidden;" version="1.1" xmlns="http://www.w3.org/2000/svg" xmlns:xlink="http://www.w3.org/1999/xlink">
<defs>
<symbol id="icon-opt" viewBox="0 0 16 16">
<title>opt</title>
<path d="M14.5 13h-4c-0.198 0-0.377-0.116-0.457-0.297l-3.868-8.703h-4.675c-0.276 0-0.5-0.224-0.5-0.5s0.224-0.5 0.5-0.5h5c0.198 0 0.377 0.116 0.457 0.297l3.868 8.703h3.675c0.276 0 0.5 0.224 0.5 0.5s-0.224 0.5-0.5 0.5z"></path>
<path d="M14.5 4h-5c-0.276 0-0.5-0.224-0.5-0.5s0.224-0.5 0.5-0.5h5c0.276 0 0.5 0.224 0.5 0.5s-0.224 0.5-0.5 0.5z"></path>
</symbol>
</defs>
</svg>