<svg aria-hidden="true" style="position: absolute; width: 0; height: 0; overflow: hidden;" version="1.1" xmlns="http://www.w3.org/2000/svg" xmlns:xlink="http://www.w3.org/1999/xlink">
<defs>
<symbol id="icon-percent" viewBox="0 0 16 16">
<title>percent</title>
<path d="M10 10h1v2h-1v-2z"></path>
<path d="M5 4h1v2h-1v-2z"></path>
<path d="M8 0c-4.418 0-8 3.582-8 8s3.582 8 8 8 8-3.582 8-8-3.582-8-8-8zM4 3.5c0-0.276 0.224-0.5 0.5-0.5h2c0.276 0 0.5 0.224 0.5 0.5v3c0 0.276-0.224 0.5-0.5 0.5h-2c-0.276 0-0.5-0.224-0.5-0.5v-3zM12 12.5c0 0.276-0.224 0.5-0.5 0.5h-2c-0.276 0-0.5-0.224-0.5-0.5v-3c0-0.276 0.224-0.5 0.5-0.5h2c0.276 0 0.5 0.224 0.5 0.5v3zM11.944 3.845l-7 9c-0.111 0.143-0.277 0.217-0.444 0.217-0.121 0-0.242-0.039-0.345-0.119-0.245-0.191-0.289-0.544-0.099-0.789l7-9c0.191-0.245 0.544-0.289 0.789-0.099s0.289 0.544 0.099 0.789z"></path>
</symbol>
</defs>
</svg>