<svg aria-hidden="true" style="position: absolute; width: 0; height: 0; overflow: hidden;" version="1.1" xmlns="http://www.w3.org/2000/svg" xmlns:xlink="http://www.w3.org/1999/xlink">
<defs>
<symbol id="icon-phone-plus" viewBox="0 0 16 16">
<title>phone-plus</title>
<path d="M11 10c1-1 4 2 4 3s-3 3-3 3c-2 0-6.055-2.055-8-4s-4-6-4-8c0 0 2-3 3-3s4 3 3 4-2 1-2 2 1 2 2 3 2 2 3 2 1-1 2-2zM11.5 0c-2.485 0-4.5 2.015-4.5 4.5s2.015 4.5 4.5 4.5 4.5-2.015 4.5-4.5-2.015-4.5-4.5-4.5zM12 5v1.996h-1v-1.996h-1.996v-1h1.996v-1.996h1v1.996h1.996v1h-1.996z"></path>
</symbol>
</defs>
</svg>