<svg aria-hidden="true" style="position: absolute; width: 0; height: 0; overflow: hidden;" version="1.1" xmlns="http://www.w3.org/2000/svg" xmlns:xlink="http://www.w3.org/1999/xlink">
<defs>
<symbol id="icon-phone-outgoing" viewBox="0 0 16 16">
<title>phone-outgoing</title>
<path d="M11 10c-1 1-1 2-2 2s-2-1-3-2-2-2-2-3 1-1 2-2-2-4-3-4-3 3-3 3c0 2 2.055 6.055 4 8s6 4 8 4c0 0 3-2 3-3s-3-4-4-3z"></path>
<path d="M9.414 8l3.543-3.543 2.043 2.043v-5.5h-5.5l2.043 2.043-3.543 3.543z"></path>
</symbol>
</defs>
</svg>