<svg aria-hidden="true" style="position: absolute; width: 0; height: 0; overflow: hidden;" version="1.1" xmlns="http://www.w3.org/2000/svg" xmlns:xlink="http://www.w3.org/1999/xlink">
<defs>
<symbol id="icon-phone-slash" viewBox="0 0 16 16">
<title>phone-slash</title>
<path d="M5.020 8.98c-0.584-0.66-1.020-1.32-1.020-1.98 0-1 1-1 2-2s-2-4-3-4-3 3-3 3c0 1.682 1.453 4.816 3.072 6.928l1.948-1.948z"></path>
<path d="M11 10c-1 1-1 2-2 2-0.649 0-1.299-0.422-1.948-0.991l6.728-6.728c0.293-0.293 0.293-0.768 0-1.061s-0.768-0.293-1.061 0l-11.5 11.5c-0.293 0.293-0.293 0.768 0 1.061 0.146 0.146 0.338 0.22 0.53 0.22s0.384-0.073 0.53-0.22l2.826-2.826c2.111 1.608 5.221 3.046 6.893 3.046 0 0 3-2 3-3s-3-4-4-3z"></path>
</symbol>
</defs>
</svg>