<svg aria-hidden="true" style="position: absolute; width: 0; height: 0; overflow: hidden;" version="1.1" xmlns="http://www.w3.org/2000/svg" xmlns:xlink="http://www.w3.org/1999/xlink">
<defs>
<symbol id="icon-phone-wave" viewBox="0 0 16 16">
<title>phone-wave</title>
<path d="M11 10c1-1 4 2 4 3s-3 3-3 3c-2 0-6.055-2.055-8-4s-4-6-4-8c0 0 2-3 3-3s4 3 3 4-2 1-2 2 1 2 2 3 2 2 3 2 1-1 2-2z"></path>
<path d="M11.5 8c-0.276 0-0.5-0.224-0.5-0.5 0-1.378-1.121-2.5-2.5-2.5-0.276 0-0.5-0.224-0.5-0.5s0.224-0.5 0.5-0.5c1.93 0 3.5 1.57 3.5 3.5 0 0.276-0.224 0.5-0.5 0.5z"></path>
<path d="M13.5 8c-0.276 0-0.5-0.224-0.5-0.5 0-2.481-2.019-4.5-4.5-4.5-0.276 0-0.5-0.224-0.5-0.5s0.224-0.5 0.5-0.5c3.033 0 5.5 2.467 5.5 5.5 0 0.276-0.224 0.5-0.5 0.5z"></path>
<path d="M15.5 8c-0.276 0-0.5-0.224-0.5-0.5 0-3.584-2.916-6.5-6.5-6.5-0.276 0-0.5-0.224-0.5-0.5s0.224-0.5 0.5-0.5c2.003 0 3.887 0.78 5.303 2.197s2.197 3.3 2.197 5.303c0 0.276-0.224 0.5-0.5 0.5z"></path>
</symbol>
</defs>
</svg>