<svg aria-hidden="true" style="position: absolute; width: 0; height: 0; overflow: hidden;" version="1.1" xmlns="http://www.w3.org/2000/svg" xmlns:xlink="http://www.w3.org/1999/xlink">
<defs>
<symbol id="icon-pill" viewBox="0 0 16 16">
<title>pill</title>
<path d="M14.682 1.318c-0.879-0.879-2.030-1.318-3.182-1.318s-2.303 0.439-3.182 1.318l-7 7c-1.757 1.757-1.757 4.607 0 6.364 0.879 0.879 2.030 1.318 3.182 1.318s2.303-0.439 3.182-1.318l7-7c1.757-1.757 1.757-4.607 0-6.364zM7.146 4.146l2-2c0.195-0.195 0.512-0.195 0.707 0s0.195 0.512 0 0.707l-2 2c-0.098 0.098-0.226 0.146-0.354 0.146s-0.256-0.049-0.354-0.146c-0.195-0.195-0.195-0.512 0-0.707zM6.754 13.754c-0.602 0.602-1.402 0.934-2.254 0.934s-1.652-0.332-2.254-0.934c-0.602-0.602-0.934-1.402-0.934-2.254s0.332-1.652 0.934-2.254l3.25-3.25 4.508 4.508-3.25 3.25z"></path>
</symbol>
</defs>
</svg>