<svg aria-hidden="true" style="position: absolute; width: 0; height: 0; overflow: hidden;" version="1.1" xmlns="http://www.w3.org/2000/svg" xmlns:xlink="http://www.w3.org/1999/xlink">
<defs>
<symbol id="icon-plate" viewBox="0 0 16 16">
<title>plate</title>
<path d="M0.517 13h14.966c0.276 0 0.5-0.224 0.5-0.5v-1c0-0.011-0-0.022-0.001-0.033-0.133-2.023-1.023-3.905-2.504-5.297-1.243-1.169-2.806-1.899-4.478-2.107v-1.063h0.5c0.276 0 0.5-0.224 0.5-0.5s-0.224-0.5-0.5-0.5h-3c-0.276 0-0.5 0.224-0.5 0.5s0.224 0.5 0.5 0.5h0.5v1.063c-1.672 0.209-3.234 0.939-4.478 2.107-1.482 1.393-2.371 3.274-2.504 5.297-0.001 0.011-0.001 0.022-0.001 0.033v1c0 0.276 0.224 0.5 0.5 0.5z"></path>
<path d="M15.5 14h-15c-0.276 0-0.5 0.224-0.5 0.5s0.224 0.5 0.5 0.5h15c0.276 0 0.5-0.224 0.5-0.5s-0.224-0.5-0.5-0.5z"></path>
</symbol>
</defs>
</svg>