<svg aria-hidden="true" style="position: absolute; width: 0; height: 0; overflow: hidden;" version="1.1" xmlns="http://www.w3.org/2000/svg" xmlns:xlink="http://www.w3.org/1999/xlink">
<defs>
<symbol id="icon-price-tags2" viewBox="0 0 20 16">
<title>price-tags2</title>
<path d="M19 1v5.75c0 0.147-0.133 0.469-0.237 0.573l-7.263 7.263-6.086-6.086 7.263-7.263c0.104-0.104 0.426-0.237 0.573-0.237h5.75zM19.25 0h-6c-0.412 0-0.989 0.239-1.28 0.53l-7.439 7.439c-0.292 0.292-0.292 0.769 0 1.061l6.439 6.439c0.146 0.146 0.338 0.219 0.53 0.219s0.384-0.073 0.53-0.219l7.439-7.439c0.292-0.292 0.53-0.868 0.53-1.28v-6c0-0.412-0.337-0.75-0.75-0.75v0z"></path>
<path d="M17 4.5c0 0.828-0.672 1.5-1.5 1.5s-1.5-0.672-1.5-1.5c0-0.828 0.672-1.5 1.5-1.5s1.5 0.672 1.5 1.5z"></path>
<path d="M9.914 0h-0.664c-0.412 0-0.989 0.239-1.28 0.53l-7.439 7.439c-0.292 0.292-0.292 0.769 0 1.061l6.439 6.439c0.146 0.146 0.338 0.219 0.53 0.219s0.385-0.073 0.53-0.219l0.177-0.177-6.793-6.793 8.5-8.5z"></path>
</symbol>
</defs>
</svg>