<svg aria-hidden="true" style="position: absolute; width: 0; height: 0; overflow: hidden;" version="1.1" xmlns="http://www.w3.org/2000/svg" xmlns:xlink="http://www.w3.org/1999/xlink">
<defs>
<symbol id="icon-price-tags3" viewBox="0 0 18 16">
<title>price-tags3</title>
<path d="M17.47 9.97l-4.439-4.439c-0.292-0.292-0.868-0.53-1.28-0.53h-9c-0.413 0-0.75 0.338-0.75 0.75v9.5c0 0.412 0.337 0.75 0.75 0.75h9c0.412 0 0.989-0.239 1.28-0.53l4.439-4.439c0.292-0.292 0.292-0.769-0-1.061zM12.5 12c-0.828 0-1.5-0.672-1.5-1.5s0.672-1.5 1.5-1.5 1.5 0.672 1.5 1.5-0.672 1.5-1.5 1.5z"></path>
<path d="M1 4h10.5l-0.47-0.47c-0.292-0.292-0.868-0.53-1.28-0.53h-9c-0.412 0-0.75 0.337-0.75 0.75v9.5c0 0.412 0.338 0.75 0.75 0.75h0.25v-10z"></path>
</symbol>
</defs>
</svg>