<svg aria-hidden="true" style="position: absolute; width: 0; height: 0; overflow: hidden;" version="1.1" xmlns="http://www.w3.org/2000/svg" xmlns:xlink="http://www.w3.org/1999/xlink">
<defs>
<symbol id="icon-price-tag5" viewBox="0 0 16 16">
<title>price-tag5</title>
<path d="M9.75 4c0.148 0 0.469 0.133 0.573 0.237l4.263 4.263-4.263 4.263c-0.104 0.104-0.426 0.237-0.573 0.237h-8.75v-9h8.75zM9.75 3h-9c-0.412 0-0.75 0.337-0.75 0.75v9.5c0 0.412 0.338 0.75 0.75 0.75h9c0.412 0 0.989-0.239 1.28-0.53l4.439-4.439c0.292-0.292 0.292-0.769 0-1.061l-4.439-4.439c-0.292-0.292-0.868-0.53-1.28-0.53v0z"></path>
<path d="M12 8.5c0 0.828-0.672 1.5-1.5 1.5s-1.5-0.672-1.5-1.5c0-0.828 0.672-1.5 1.5-1.5s1.5 0.672 1.5 1.5z"></path>
</symbol>
</defs>
</svg>