<svg aria-hidden="true" style="position: absolute; width: 0; height: 0; overflow: hidden;" version="1.1" xmlns="http://www.w3.org/2000/svg" xmlns:xlink="http://www.w3.org/1999/xlink">
<defs>
<symbol id="icon-profile" viewBox="0 0 16 16">
<title>profile</title>
<path d="M13.5 0h-12c-0.825 0-1.5 0.675-1.5 1.5v13c0 0.825 0.675 1.5 1.5 1.5h12c0.825 0 1.5-0.675 1.5-1.5v-13c0-0.825-0.675-1.5-1.5-1.5zM13 14h-11v-12h11v12zM4 9h7v1h-7zM4 11h7v1h-7zM5 4.5c0-0.828 0.672-1.5 1.5-1.5s1.5 0.672 1.5 1.5c0 0.828-0.672 1.5-1.5 1.5s-1.5-0.672-1.5-1.5zM7.5 6h-2c-0.825 0-1.5 0.45-1.5 1v1h5v-1c0-0.55-0.675-1-1.5-1z"></path>
</symbol>
</defs>
</svg>