<svg aria-hidden="true" style="position: absolute; width: 0; height: 0; overflow: hidden;" version="1.1" xmlns="http://www.w3.org/2000/svg" xmlns:xlink="http://www.w3.org/1999/xlink">
<defs>
<symbol id="icon-racing" viewBox="0 0 16 16">
<title>racing</title>
<path d="M6 3h2v2h-2v-2zM8 5v2c1 0 1 1 2 1v-2c-1 0-1-1-2-1zM10 4h2v2h-2v-2zM10 1c-0.5 0-0.75-0.25-1-0.5s-0.5-0.5-1-0.5h-5v10h5c0.5 0 0.75 0.25 1 0.5s0.5 0.5 1 0.5h5v-10h-5zM14 6h-2v2h2v2h-2v-2h-2v2c-0.5 0-0.75-0.25-1-0.5s-0.5-0.5-1-0.5v-2h-2v2h-2v-2h2v-2h-2v-2h2v-2h2v2c0.5 0 0.75 0.25 1 0.5s0.5 0.5 1 0.5v-2h2v2h2v2z"></path>
<path d="M0 0h2v16h-2v-16z"></path>
</symbol>
</defs>
</svg>