<svg aria-hidden="true" style="position: absolute; width: 0; height: 0; overflow: hidden;" version="1.1" xmlns="http://www.w3.org/2000/svg" xmlns:xlink="http://www.w3.org/1999/xlink">
<defs>
<symbol id="icon-safe" viewBox="0 0 16 16">
<title>safe</title>
<path d="M15 0h-13c-0.552 0-1 0.448-1 1v1h-0.5c-0.276 0-0.5 0.224-0.5 0.5v3c0 0.276 0.224 0.5 0.5 0.5h0.5v4h-0.5c-0.276 0-0.5 0.224-0.5 0.5v3c0 0.276 0.224 0.5 0.5 0.5h0.5v1c0 0.552 0.448 1 1 1h13c0.552 0 1-0.448 1-1v-14c0-0.552-0.448-1-1-1zM14 14h-11v-12h11v12z"></path>
<path d="M10 8.5c0 0.828-0.672 1.5-1.5 1.5s-1.5-0.672-1.5-1.5c0-0.828 0.672-1.5 1.5-1.5s1.5 0.672 1.5 1.5z"></path>
<path d="M4 3v10h9v-10h-9zM8.5 11c-1.381 0-2.5-1.119-2.5-2.5s1.119-2.5 2.5-2.5 2.5 1.119 2.5 2.5-1.119 2.5-2.5 2.5z"></path>
</symbol>
</defs>
</svg>