<svg aria-hidden="true" style="position: absolute; width: 0; height: 0; overflow: hidden;" version="1.1" xmlns="http://www.w3.org/2000/svg" xmlns:xlink="http://www.w3.org/1999/xlink">
<defs>
<symbol id="icon-select2" viewBox="0 0 16 16">
<title>select2</title>
<path d="M13.002 14.658v0l-2.16-4.329 4.278-0.74-10.119-7.589v12.649l3.158-2.978 2.16 4.329z"></path>
<path d="M1 10.5v-9c0-0.271 0.229-0.5 0.5-0.5h11c0.271 0 0.5 0.229 0.5 0.5v4l1 0.75v-4.75c0-0.825-0.675-1.5-1.5-1.5h-11c-0.825 0-1.5 0.675-1.5 1.5v9c0 0.825 0.675 1.5 1.5 1.5h1.5v-1h-1.5c-0.271 0-0.5-0.229-0.5-0.5z"></path>
</symbol>
</defs>
</svg>