<svg aria-hidden="true" style="position: absolute; width: 0; height: 0; overflow: hidden;" version="1.1" xmlns="http://www.w3.org/2000/svg" xmlns:xlink="http://www.w3.org/1999/xlink">
<defs>
<symbol id="icon-shredder" viewBox="0 0 16 16">
<title>shredder</title>
<path d="M4.5 16c-0.276 0-0.5-0.224-0.5-0.5v-5c0-0.276 0.224-0.5 0.5-0.5s0.5 0.224 0.5 0.5v5c0 0.276-0.224 0.5-0.5 0.5z"></path>
<path d="M6.5 15c-0.276 0-0.5-0.224-0.5-0.5v-4c0-0.276 0.224-0.5 0.5-0.5s0.5 0.224 0.5 0.5v4c0 0.276-0.224 0.5-0.5 0.5z"></path>
<path d="M8.5 15c-0.276 0-0.5-0.224-0.5-0.5v-4c0-0.276 0.224-0.5 0.5-0.5s0.5 0.224 0.5 0.5v4c0 0.276-0.224 0.5-0.5 0.5z"></path>
<path d="M10.5 16c-0.276 0-0.5-0.224-0.5-0.5v-5c0-0.276 0.224-0.5 0.5-0.5s0.5 0.224 0.5 0.5v5c0 0.276-0.224 0.5-0.5 0.5z"></path>
<path d="M14.5 5h-2.5v1h-9v-1h-2.5c-0.276 0-0.5 0.224-0.5 0.5v6c0 0.276 0.224 0.5 0.5 0.5h2.5v-3h9v3h2.5c0.276 0 0.5-0.224 0.5-0.5v-6c0-0.276-0.224-0.5-0.5-0.5z"></path>
<path d="M4 0h7v5h-7v-5z"></path>
</symbol>
</defs>
</svg>