<svg aria-hidden="true" style="position: absolute; width: 0; height: 0; overflow: hidden;" version="1.1" xmlns="http://www.w3.org/2000/svg" xmlns:xlink="http://www.w3.org/1999/xlink">
<defs>
<symbol id="icon-shutter" viewBox="0 0 16 16">
<title>shutter</title>
<path d="M5.113 7l3.997-6.923c-0.363-0.050-0.733-0.077-1.11-0.077-2.183 0-4.161 0.875-5.605 2.292l2.718 4.708z"></path>
<path d="M7.423 5h7.995c-0.925-2.284-2.873-4.043-5.276-4.71l-2.719 4.71z"></path>
<path d="M5.691 10l-3.997-6.923c-1.061 1.357-1.694 3.066-1.694 4.923 0 0.691 0.087 1.361 0.252 2h5.439z"></path>
<path d="M10.309 6l3.997 6.923c1.061-1.357 1.694-3.066 1.694-4.923 0-0.691-0.088-1.361-0.252-2h-5.439z"></path>
<path d="M8.577 11h-7.995c0.925 2.284 2.873 4.043 5.276 4.71l2.719-4.71z"></path>
<path d="M10.887 9l-3.997 6.923c0.363 0.050 0.733 0.077 1.11 0.077 2.183 0 4.161-0.875 5.605-2.292l-2.718-4.708z"></path>
</symbol>
</defs>
</svg>