<svg aria-hidden="true" style="position: absolute; width: 0; height: 0; overflow: hidden;" version="1.1" xmlns="http://www.w3.org/2000/svg" xmlns:xlink="http://www.w3.org/1999/xlink">
<defs>
<symbol id="icon-sort-time-desc" viewBox="0 0 16 16">
<title>sort-time-desc</title>
<path d="M5 12v-12h-2v12h-2.5l3.5 3.5 3.5-3.5h-2.5z"></path>
<path d="M10.5 2c-0.276 0-0.5 0.224-0.5 0.5v3c0 0.276 0.224 0.5 0.5 0.5h2c0.276 0 0.5-0.224 0.5-0.5s-0.224-0.5-0.5-0.5h-1.5v-2.5c0-0.276-0.224-0.5-0.5-0.5z"></path>
<path d="M6 5c0-2.757 2.243-5 5-5s5 2.243 5 5v0.5c0 0.276-0.224 0.5-0.5 0.5s-0.5-0.224-0.5-0.5v-0.5c0-2.206-1.794-4-4-4s-4 1.794-4 4c0 1.86 1.277 3.428 3 3.873v-1.873l3 2.5-3 2.5v-2.101c-2.279-0.465-4-2.485-4-4.899z"></path>
</symbol>
</defs>
</svg>