<svg aria-hidden="true" style="position: absolute; width: 0; height: 0; overflow: hidden;" version="1.1" xmlns="http://www.w3.org/2000/svg" xmlns:xlink="http://www.w3.org/1999/xlink">
<defs>
<symbol id="icon-stack" viewBox="0 0 16 16">
<title>stack</title>
<path d="M13.75 4h-0.75v-0.75c0-0.689-0.561-1.25-1.25-1.25h-0.75v-0.75c0-0.689-0.561-1.25-1.25-1.25h-7.5c-0.689 0-1.25 0.561-1.25 1.25v9.5c0 0.689 0.561 1.25 1.25 1.25h0.75v0.75c0 0.689 0.561 1.25 1.25 1.25h0.75v0.75c0 0.689 0.561 1.25 1.25 1.25h7.5c0.689 0 1.25-0.561 1.25-1.25v-9.5c0-0.689-0.561-1.25-1.25-1.25zM2.25 11c-0.138 0-0.25-0.113-0.25-0.25v-9.5c0-0.137 0.112-0.25 0.25-0.25h7.5c0.137 0 0.25 0.113 0.25 0.25v0.75h-5.75c-0.689 0-1.25 0.561-1.25 1.25v7.75h-0.75zM4.25 13c-0.138 0-0.25-0.113-0.25-0.25v-9.5c0-0.138 0.112-0.25 0.25-0.25h7.5c0.137 0 0.25 0.112 0.25 0.25v0.75h-5.75c-0.689 0-1.25 0.561-1.25 1.25v7.75h-0.75zM14 14.75c0 0.137-0.113 0.25-0.25 0.25h-7.5c-0.138 0-0.25-0.113-0.25-0.25v-9.5c0-0.138 0.112-0.25 0.25-0.25h7.5c0.137 0 0.25 0.112 0.25 0.25v9.5z"></path>
</symbol>
</defs>
</svg>