<svg aria-hidden="true" style="position: absolute; width: 0; height: 0; overflow: hidden;" version="1.1" xmlns="http://www.w3.org/2000/svg" xmlns:xlink="http://www.w3.org/1999/xlink">
<defs>
<symbol id="icon-starburst" viewBox="0 0 16 16">
<title>starburst</title>
<path d="M8 1.25l1.267-1.25 0.819 1.581 1.591-0.798 0.29 1.756 1.76-0.267-0.267 1.76 1.756 0.29-0.797 1.591 1.581 0.819-1.25 1.267 1.25 1.267-1.581 0.819 0.797 1.591-1.756 0.29 0.267 1.76-1.76-0.267-0.29 1.756-1.591-0.798-0.819 1.581-1.267-1.25-1.267 1.25-0.819-1.581-1.591 0.798-0.29-1.756-1.76 0.267 0.267-1.76-1.756-0.29 0.797-1.591-1.581-0.819 1.25-1.267-1.25-1.267 1.581-0.819-0.797-1.591 1.756-0.29-0.267-1.76 1.76 0.267 0.29-1.756 1.591 0.798 0.819-1.581z"></path>
</symbol>
</defs>
</svg>