<svg aria-hidden="true" style="position: absolute; width: 0; height: 0; overflow: hidden;" version="1.1" xmlns="http://www.w3.org/2000/svg" xmlns:xlink="http://www.w3.org/1999/xlink">
<defs>
<symbol id="icon-stats-bars6" viewBox="0 0 16 16">
<title>stats-bars6</title>
<path d="M4.5 6h-3c-0.275 0-0.5 0.225-0.5 0.5v9c0 0.275 0.225 0.5 0.5 0.5h3c0.275 0 0.5-0.225 0.5-0.5v-9c0-0.275-0.225-0.5-0.5-0.5zM4.5 11v0.125h-3v-0.125h3zM1.5 14.125v-0.25h3v0.25h-3zM4.5 14.375v0.25h-3v-0.25h3zM1.5 13.625v-0.25h3v0.25h-3zM1.5 13.125v-0.25h3v0.25h-3zM1.5 12.625v-0.25h3v0.25h-3zM1.5 12.125v-0.25h3v0.25h-3zM1.5 11.625v-0.25h3v0.25h-3zM1.5 15v-0.125h3v0.125h-3zM9.5 4h-3c-0.275 0-0.5 0.225-0.5 0.5v11c0 0.275 0.225 0.5 0.5 0.5h3c0.275 0 0.5-0.225 0.5-0.5v-11c0-0.275-0.225-0.5-0.5-0.5zM9.5 10v0.125h-3v-0.125h3zM6.5 14.125v-0.25h3v0.25h-3zM9.5 14.375v0.25h-3v-0.25h3zM6.5 13.625v-0.25h3v0.25h-3zM6.5 13.125v-0.25h3v0.25h-3zM6.5 12.625v-0.25h3v0.25h-3zM6.5 12.125v-0.25h3v0.25h-3zM6.5 11.625v-0.25h3v0.25h-3zM6.5 11.125v-0.25h3v0.25h-3zM6.5 10.625v-0.25h3v0.25h-3zM6.5 15v-0.125h3v0.125h-3zM14.5 2h-3c-0.275 0-0.5 0.225-0.5 0.5v13c0 0.275 0.225 0.5 0.5 0.5h3c0.275 0 0.5-0.225 0.5-0.5v-13c0-0.275-0.225-0.5-0.5-0.5zM14.5 9v0.125h-3v-0.125h3zM11.5 14.125v-0.25h3v0.25h-3zM14.5 14.375v0.25h-3v-0.25h3zM11.5 13.625v-0.25h3v0.25h-3zM11.5 13.125v-0.25h3v0.25h-3zM11.5 12.625v-0.25h3v0.25h-3zM11.5 12.125v-0.25h3v0.25h-3zM11.5 11.625v-0.25h3v0.25h-3zM11.5 11.125v-0.25h3v0.25h-3zM11.5 10.625v-0.25h3v0.25h-3zM11.5 10.125v-0.25h3v0.25h-3zM11.5 9.625v-0.25h3v0.25h-3zM11.5 15v-0.125h3v0.125h-3z"></path>
</symbol>
</defs>
</svg>