<svg aria-hidden="true" style="position: absolute; width: 0; height: 0; overflow: hidden;" version="1.1" xmlns="http://www.w3.org/2000/svg" xmlns:xlink="http://www.w3.org/1999/xlink">
<defs>
<symbol id="icon-stats-bars5" viewBox="0 0 16 16">
<title>stats-bars5</title>
<path d="M9.5 4h-3c-0.275 0-0.5 0.225-0.5 0.5v11c0 0.275 0.225 0.5 0.5 0.5h3c0.275 0 0.5-0.225 0.5-0.5v-11c0-0.275-0.225-0.5-0.5-0.5zM9.5 15h-3v-5.125h3v5.125zM9.5 9.625h-3v-0.25h3v0.25zM9.5 9.125h-3v-0.25h3v0.25zM9.5 8.625h-3v-0.25h3v0.25zM9.5 8.125h-3v-0.25h3v0.25zM9.5 7.625h-3v-0.25h3v0.25zM9.5 7.125h-3v-0.25h3v0.25zM9.5 6.625h-3v-0.25h3v0.25zM9.5 6.125h-3v-0.25h3v0.25zM9.5 5.625h-3v-0.25h3v0.25zM9.5 5.125h-3v-0.125h3v0.125zM4.5 6h-3c-0.275 0-0.5 0.225-0.5 0.5v9c0 0.275 0.225 0.5 0.5 0.5h3c0.275 0 0.5-0.225 0.5-0.5v-9c0-0.275-0.225-0.5-0.5-0.5zM4.5 15h-3v-4.125h3v4.125zM4.5 10.625h-3v-0.25h3v0.25zM4.5 10.125h-3v-0.25h3v0.25zM4.5 9.625h-3v-0.25h3v0.25zM4.5 9.125h-3v-0.25h3v0.25zM4.5 8.625h-3v-0.25h3v0.25zM4.5 8.125h-3v-0.25h3v0.25zM4.5 7.625h-3v-0.25h3v0.25zM4.5 7.125h-3v-0.125h3v0.125zM14.5 2h-3c-0.275 0-0.5 0.225-0.5 0.5v13c0 0.275 0.225 0.5 0.5 0.5h3c0.275 0 0.5-0.225 0.5-0.5v-13c0-0.275-0.225-0.5-0.5-0.5zM14.5 15h-3v-6.125h3v6.125zM14.5 8.625h-3v-0.25h3v0.25zM14.5 8.125h-3v-0.25h3v0.25zM14.5 7.625h-3v-0.25h3v0.25zM14.5 7.125h-3v-0.25h3v0.25zM14.5 6.625h-3v-0.25h3v0.25zM14.5 6.125h-3v-0.25h3v0.25zM14.5 5.625h-3v-0.25h3v0.25zM14.5 5.125h-3v-0.25h3v0.25zM14.5 4.625h-3v-0.25h3v0.25zM14.5 4.125h-3v-0.25h3v0.25zM14.5 3.625h-3v-0.25h3v0.25zM14.5 3.125h-3v-0.125h3v0.125z"></path>
</symbol>
</defs>
</svg>