<svg aria-hidden="true" style="position: absolute; width: 0; height: 0; overflow: hidden;" version="1.1" xmlns="http://www.w3.org/2000/svg" xmlns:xlink="http://www.w3.org/1999/xlink">
<defs>
<symbol id="icon-subtract" viewBox="0 0 16 16">
<title>subtract</title>
<path d="M11 5v-5h-11v11h5v5h11v-11h-5zM9 4h-5v0.125h-2v-0.25h7v0.125zM2 9v-0.125h2v0.125h-2zM2 8.625v-0.25h2v0.25h-2zM2 8.125v-0.25h2v0.25h-2zM2 7.625v-0.25h2v0.25h-2zM2 7.125v-0.25h2v0.25h-2zM2 6.625v-0.25h2v0.25h-2zM2 6.125v-0.25h2v0.25h-2zM2 5.625v-0.25h2v0.25h-2zM2 5.125v-0.25h2v0.25h-2zM2 4.625v-0.25h2v0.25h-2zM9 3.625h-7v-0.25h7v0.25zM9 3.125h-7v-0.25h7v0.25zM9 2.625h-7v-0.25h7v0.25zM9 2.125h-7v-0.125h7v0.125zM15 15h-9v-9h9v9z"></path>
</symbol>
</defs>
</svg>