<svg aria-hidden="true" style="position: absolute; width: 0; height: 0; overflow: hidden;" version="1.1" xmlns="http://www.w3.org/2000/svg" xmlns:xlink="http://www.w3.org/1999/xlink">
<defs>
<symbol id="icon-target3" viewBox="0 0 16 16">
<title>target3</title>
<path d="M8 0c-4.418 0-8 3.582-8 8s3.582 8 8 8 8-3.582 8-8-3.582-8-8-8zM12.243 12.243c-0.894 0.894-2.020 1.471-3.243 1.675v-2.917h-2v2.917c-1.222-0.204-2.349-0.781-3.243-1.675s-1.471-2.020-1.675-3.243h2.917v-2h-2.917c0.204-1.222 0.781-2.349 1.675-3.243s2.020-1.471 3.243-1.675v2.917h2v-2.917c1.222 0.204 2.349 0.781 3.243 1.675s1.471 2.020 1.675 3.243h-2.917v2h2.917c-0.204 1.222-0.781 2.349-1.675 3.243z"></path>
</symbol>
</defs>
</svg>