<svg aria-hidden="true" style="position: absolute; width: 0; height: 0; overflow: hidden;" version="1.1" xmlns="http://www.w3.org/2000/svg" xmlns:xlink="http://www.w3.org/1999/xlink">
<defs>
<symbol id="icon-thumbs-up3" viewBox="0 0 16 16">
<title>thumbs-up3</title>
<path d="M14.5 9c1.141 0 0.5 3-0.5 3 0.5 0 0 2.5-1 2.5 0 1-1 1.5-2 1.5-4.224 0-2.739-1.057-7-1.5v-8c3.764-1.129 7.5-3.96 7.5-6.5 0.828 0 3 1 0 6 0 0 2.5 0 3 0 1.5 0 1 3 0 3zM3 6.5v8h1v0.5h-2c-0.55 0-1-0.675-1-1.5v-6c0-0.825 0.45-1.5 1-1.5h2v0.5h-1z"></path>
</symbol>
</defs>
</svg>