<svg aria-hidden="true" style="position: absolute; width: 0; height: 0; overflow: hidden;" version="1.1" xmlns="http://www.w3.org/2000/svg" xmlns:xlink="http://www.w3.org/1999/xlink">
<defs>
<symbol id="icon-thumbs-down3" viewBox="0 0 16 16">
<title>thumbs-down3</title>
<path d="M1.5 7c-1.141 0-0.5-3 0.5-3-0.5 0 0-2.5 1-2.5 0-1 1-1.5 2-1.5 4.224 0 2.739 1.057 7 1.5v8c-3.764 1.129-7.5 3.96-7.5 6.5-0.828 0-3-1 0-6 0 0-2.5 0-3 0-1.5 0-1-3 0-3zM13 9.5v-8h-1v-0.5h2c0.55 0 1 0.675 1 1.5v6c0 0.825-0.45 1.5-1 1.5h-2v-0.5h1z"></path>
</symbol>
</defs>
</svg>