<svg aria-hidden="true" style="position: absolute; width: 0; height: 0; overflow: hidden;" version="1.1" xmlns="http://www.w3.org/2000/svg" xmlns:xlink="http://www.w3.org/1999/xlink">
<defs>
<symbol id="icon-toiletpaper" viewBox="0 0 16 16">
<title>toiletpaper</title>
<path d="M15.215 2.741c-0.561-1.123-1.348-1.741-2.215-1.741h-10c-0.867 0-1.654 0.618-2.215 1.741-0.506 1.012-0.785 2.347-0.785 3.759s0.279 2.747 0.785 3.759c0.561 1.123 1.348 1.741 2.215 1.741h2v3.5c0 0.202 0.122 0.385 0.309 0.462s0.402 0.035 0.545-0.108l0.646-0.646 0.646 0.646c0.195 0.195 0.512 0.195 0.707 0l0.646-0.646 0.646 0.646c0.195 0.195 0.512 0.195 0.707 0l0.646-0.646 0.646 0.646c0.195 0.195 0.512 0.195 0.707 0l0.646-0.646 0.646 0.646c0.195 0.195 0.512 0.195 0.707 0l0.646-0.646 0.646 0.646c0.096 0.096 0.223 0.147 0.354 0.147 0.064-0 0.129-0.012 0.191-0.038 0.187-0.077 0.309-0.26 0.309-0.462v-9c0-1.412-0.279-2.747-0.785-3.759zM1 6.5c0-2.652 1.054-4.5 2-4.5s2 1.848 2 4.5-1.054 4.5-2 4.5-2-1.848-2-4.5zM15 14.293l-0.146-0.146c-0.195-0.195-0.512-0.195-0.707 0l-0.646 0.646-0.646-0.646c-0.195-0.195-0.512-0.195-0.707 0l-0.646 0.646-0.646-0.646c-0.195-0.195-0.512-0.195-0.707 0l-0.646 0.646-0.646-0.646c-0.195-0.195-0.512-0.195-0.707 0l-0.646 0.646-0.646-0.646c-0.195-0.195-0.512-0.195-0.707 0l-0.146 0.146v-7.793c0-1.412-0.279-2.747-0.785-3.759-0.139-0.279-0.293-0.526-0.457-0.741h8.242c0.946 0 2 1.848 2 4.5v7.793z"></path>
<path d="M4 6.5c0 0.828-0.448 1.5-1 1.5s-1-0.672-1-1.5c0-0.828 0.448-1.5 1-1.5s1 0.672 1 1.5z"></path>
<path d="M8 6.5c0 0.276-0.224 0.5-0.5 0.5s-0.5-0.224-0.5-0.5c0-0.276 0.224-0.5 0.5-0.5s0.5 0.224 0.5 0.5z"></path>
<path d="M10 6.5c0 0.276-0.224 0.5-0.5 0.5s-0.5-0.224-0.5-0.5c0-0.276 0.224-0.5 0.5-0.5s0.5 0.224 0.5 0.5z"></path>
<path d="M12 6.5c0 0.276-0.224 0.5-0.5 0.5s-0.5-0.224-0.5-0.5c0-0.276 0.224-0.5 0.5-0.5s0.5 0.224 0.5 0.5z"></path>
<path d="M14 6.5c0 0.276-0.224 0.5-0.5 0.5s-0.5-0.224-0.5-0.5c0-0.276 0.224-0.5 0.5-0.5s0.5 0.224 0.5 0.5z"></path>
</symbol>
</defs>
</svg>