<svg aria-hidden="true" style="position: absolute; width: 0; height: 0; overflow: hidden;" version="1.1" xmlns="http://www.w3.org/2000/svg" xmlns:xlink="http://www.w3.org/1999/xlink">
<defs>
<symbol id="icon-tree6" viewBox="0 0 16 16">
<title>tree6</title>
<path d="M15.25 12h-0.25v-3.25c0-0.965-0.785-1.75-1.75-1.75h-4.25v-2h0.25c0.412 0 0.75-0.338 0.75-0.75v-2.5c0-0.413-0.338-0.75-0.75-0.75h-2.5c-0.412 0-0.75 0.337-0.75 0.75v2.5c0 0.412 0.338 0.75 0.75 0.75h0.25v2h-4.25c-0.965 0-1.75 0.785-1.75 1.75v3.25h-0.25c-0.412 0-0.75 0.338-0.75 0.75v2.5c0 0.412 0.338 0.75 0.75 0.75h2.5c0.413 0 0.75-0.338 0.75-0.75v-2.5c0-0.412-0.337-0.75-0.75-0.75h-0.25v-3h4v3h-0.25c-0.412 0-0.75 0.338-0.75 0.75v2.5c0 0.412 0.338 0.75 0.75 0.75h2.5c0.412 0 0.75-0.338 0.75-0.75v-2.5c0-0.412-0.338-0.75-0.75-0.75h-0.25v-3h4v3h-0.25c-0.412 0-0.75 0.338-0.75 0.75v2.5c0 0.412 0.338 0.75 0.75 0.75h2.5c0.412 0 0.75-0.338 0.75-0.75v-2.5c0-0.412-0.338-0.75-0.75-0.75z"></path>
</symbol>
</defs>
</svg>