<svg aria-hidden="true" style="position: absolute; width: 0; height: 0; overflow: hidden;" version="1.1" xmlns="http://www.w3.org/2000/svg" xmlns:xlink="http://www.w3.org/1999/xlink">
<defs>
<symbol id="icon-unlink5" viewBox="0 0 17 16">
<title>unlink5</title>
<path d="M7 12h-3c-2.206 0-4-1.794-4-4s1.794-4 4-4h3c0.552 0 1 0.448 1 1s-0.448 1-1 1h-3c-1.103 0-2 0.897-2 2s0.897 2 2 2h3c0.552 0 1 0.448 1 1s-0.448 1-1 1z"></path>
<path d="M13 12h-3c-0.552 0-1-0.448-1-1s0.448-1 1-1h3c1.103 0 2-0.897 2-2s-0.897-2-2-2h-3c-0.552 0-1-0.448-1-1s0.448-1 1-1h3c2.206 0 4 1.794 4 4s-1.794 4-4 4z"></path>
<path d="M8.5 3c-0.276 0-0.5-0.224-0.5-0.5v-2c0-0.276 0.224-0.5 0.5-0.5s0.5 0.224 0.5 0.5v2c0 0.276-0.224 0.5-0.5 0.5z"></path>
<path d="M11.5 3c-0.128 0-0.256-0.049-0.354-0.146-0.195-0.195-0.195-0.512 0-0.707l2-2c0.195-0.195 0.512-0.195 0.707 0s0.195 0.512 0 0.707l-2 2c-0.098 0.098-0.226 0.146-0.354 0.146z"></path>
<path d="M5.5 3c-0.128 0-0.256-0.049-0.354-0.146l-2-2c-0.195-0.195-0.195-0.512 0-0.707s0.512-0.195 0.707 0l2 2c0.195 0.195 0.195 0.512 0 0.707-0.098 0.098-0.226 0.146-0.354 0.146z"></path>
<path d="M8.5 13c0.276 0 0.5 0.224 0.5 0.5v2c0 0.276-0.224 0.5-0.5 0.5s-0.5-0.224-0.5-0.5v-2c0-0.276 0.224-0.5 0.5-0.5z"></path>
<path d="M5.5 13c0.128 0 0.256 0.049 0.354 0.146 0.195 0.195 0.195 0.512 0 0.707l-2 2c-0.195 0.195-0.512 0.195-0.707 0s-0.195-0.512 0-0.707l2-2c0.098-0.098 0.226-0.146 0.354-0.146z"></path>
<path d="M11.5 13c0.128 0 0.256 0.049 0.354 0.146l2 2c0.195 0.195 0.195 0.512 0 0.707s-0.512 0.195-0.707 0l-2-2c-0.195-0.195-0.195-0.512 0-0.707 0.098-0.098 0.226-0.146 0.354-0.146z"></path>
</symbol>
</defs>
</svg>