<svg aria-hidden="true" style="position: absolute; width: 0; height: 0; overflow: hidden;" version="1.1" xmlns="http://www.w3.org/2000/svg" xmlns:xlink="http://www.w3.org/1999/xlink">
<defs>
<symbol id="icon-unlocked2" viewBox="0 0 16 16">
<title>unlocked2</title>
<path d="M12 1h-2c-1.654 0-3 1.346-3 3v3h-6.25c-0.412 0-0.75 0.338-0.75 0.75v7.5c0 0.412 0.338 0.75 0.75 0.75h8.5c0.412 0 0.75-0.338 0.75-0.75v-7.5c0-0.412-0.338-0.75-0.75-0.75h-0.25v-3c0-0.551 0.449-1 1-1h2c0.551 0 1 0.449 1 1v3h2v-3c0-1.654-1.346-3-3-3zM6 14h-2l0.435-2.175c-0.263-0.18-0.435-0.482-0.435-0.825 0-0.552 0.448-1 1-1s1 0.448 1 1c0 0.343-0.172 0.645-0.435 0.825l0.435 2.175z"></path>
</symbol>
</defs>
</svg>