<svg aria-hidden="true" style="position: absolute; width: 0; height: 0; overflow: hidden;" version="1.1" xmlns="http://www.w3.org/2000/svg" xmlns:xlink="http://www.w3.org/1999/xlink">
<defs>
<symbol id="icon-user4" viewBox="0 0 16 16">
<title>user4</title>
<path d="M8 2c1.654 0 3 1.346 3 3s-1.346 3-3 3-3-1.346-3-3 1.346-3 3-3zM8 1c-2.209 0-4 1.791-4 4s1.791 4 4 4 4-1.791 4-4-1.791-4-4-4v0zM12 11c1.654 0 3 1.346 3 3h-14c0-1.654 1.346-3 3-3h8zM12 10h-8c-2.209 0-4 1.791-4 4v1h16v-1c0-2.209-1.791-4-4-4v0z"></path>
</symbol>
</defs>
</svg>