<svg aria-hidden="true" style="position: absolute; width: 0; height: 0; overflow: hidden;" version="1.1" xmlns="http://www.w3.org/2000/svg" xmlns:xlink="http://www.w3.org/1999/xlink">
<defs>
<symbol id="icon-vcard" viewBox="0 0 16 16">
<title>vcard</title>
<path d="M14 3h-12c-1.1 0-2 0.9-2 2v7c0 1.1 0.9 2 2 2h12c1.1 0 2-0.9 2-2v-7c0-1.1-0.9-2-2-2zM2 12c0-2.209 1.119-4 2.5-4-0.828 0-1.5-0.672-1.5-1.5s0.672-1.5 1.5-1.5 1.5 0.672 1.5 1.5-0.672 1.5-1.5 1.5c1.381 0 2.5 1.791 2.5 4h-5zM14 12h-5v-1h5v1zM14 10h-5v-1h5v1zM14 8h-5v-1h5v1z"></path>
</symbol>
</defs>
</svg>