<svg aria-hidden="true" style="position: absolute; width: 0; height: 0; overflow: hidden;" version="1.1" xmlns="http://www.w3.org/2000/svg" xmlns:xlink="http://www.w3.org/1999/xlink">
<defs>
<symbol id="icon-watch2" viewBox="0 0 16 16">
<title>watch2</title>
<path d="M9.5 8h-1.5v-2.5c0-0.276-0.224-0.5-0.5-0.5s-0.5 0.224-0.5 0.5v3c0 0.276 0.224 0.5 0.5 0.5h2c0.276 0 0.5-0.224 0.5-0.5s-0.224-0.5-0.5-0.5z"></path>
<path d="M14 8c0-2.422-1.435-4.508-3.501-5.455h0.001l-0.5-2.545h-4l-0.5 2.545h0.001c-2.066 0.948-3.501 3.034-3.501 5.455s1.435 4.507 3.5 5.455l-0 0 0.5 2.545h4l0.5-2.545h-0.001c2.066-0.948 3.501-3.034 3.501-5.455zM8 12.5c-2.485 0-4.5-2.015-4.5-4.5s2.015-4.5 4.5-4.5c2.485 0 4.5 2.015 4.5 4.5s-2.015 4.5-4.5 4.5z"></path>
</symbol>
</defs>
</svg>