<svg aria-hidden="true" style="position: absolute; width: 0; height: 0; overflow: hidden;" version="1.1" xmlns="http://www.w3.org/2000/svg" xmlns:xlink="http://www.w3.org/1999/xlink">
<defs>
<symbol id="icon-wave2" viewBox="0 0 18 16">
<title>wave2</title>
<path d="M16 4h2v8c0 1.654-1.346 3-3 3s-3-1.346-3-3v-8c0-0.551-0.449-1-1-1s-1 0.449-1 1v8c0 1.654-1.346 3-3 3s-3-1.346-3-3v-8c0-0.551-0.449-1-1-1s-1 0.449-1 1v8h-2v-8c0-1.654 1.346-3 3-3s3 1.346 3 3v8c0 0.551 0.449 1 1 1s1-0.449 1-1v-8c0-1.654 1.346-3 3-3s3 1.346 3 3v8c0 0.551 0.449 1 1 1s1-0.449 1-1v-8z"></path>
</symbol>
</defs>
</svg>