<svg aria-hidden="true" style="position: absolute; width: 0; height: 0; overflow: hidden;" version="1.1" xmlns="http://www.w3.org/2000/svg" xmlns:xlink="http://www.w3.org/1999/xlink">
<defs>
<symbol id="icon-wrench3" viewBox="0 0 16 16">
<title>wrench3</title>
<path d="M2.129 0.629l1.871 1.871-2 2-1.871-1.871c-0.084 0.276-0.129 0.568-0.129 0.871 0 1.657 1.343 3 3 3 0.303 0 0.596-0.045 0.871-0.129l5.757 5.757c-0.084 0.276-0.129 0.568-0.129 0.871 0 1.657 1.343 3 3 3 0.303 0 0.596-0.045 0.871-0.129l-1.871-1.871 2-2 1.871 1.871c0.084-0.276 0.129-0.568 0.129-0.871 0-1.657-1.343-3-3-3-0.303 0-0.596 0.045-0.871 0.129l-5.757-5.757c0.084-0.276 0.129-0.568 0.129-0.871 0-1.657-1.343-3-3-3-0.303 0-0.596 0.045-0.871 0.129z"></path>
</symbol>
</defs>
</svg>