<svg aria-hidden="true" style="position: absolute; width: 0; height: 0; overflow: hidden;" version="1.1" xmlns="http://www.w3.org/2000/svg" xmlns:xlink="http://www.w3.org/1999/xlink">
<defs>
<symbol id="icon-yin-yang" viewBox="0 0 16 16">
<title>yin-yang</title>
<path d="M7 4c0-0.552 0.448-1 1-1s1 0.448 1 1c0 0.552-0.448 1-1 1s-1-0.448-1-1zM8 0c-4.418 0-8 3.582-8 8s3.582 8 8 8 8-3.582 8-8-3.582-8-8-8zM8 13c-0.552 0-1-0.448-1-1s0.448-1 1-1c0.552 0 1 0.448 1 1s-0.448 1-1 1zM8 8c-1.795 0-3.25 1.455-3.25 3.25s1.455 3.25 3.25 3.25c-3.59 0-6.5-2.91-6.5-6.5s2.91-6.5 6.5-6.5c1.795 0 3.25 1.455 3.25 3.25s-1.455 3.25-3.25 3.25z"></path>
</symbol>
</defs>
</svg>