<svg aria-hidden="true" style="position: absolute; width: 0; height: 0; overflow: hidden;" version="1.1" xmlns="http://www.w3.org/2000/svg" xmlns:xlink="http://www.w3.org/1999/xlink">
<defs>
<symbol id="icon-zalo" viewBox="0 0 384.000000 384.000000">
  <g transform="translate(0.000000,384.000000) scale(0.100000,-0.100000)" stroke="none">
    <path d="M272 3795 c-96 -72 -202 -198 -256 -302 -15 -29 -16 -161 -16 -1556
    l0 -1523 36 -60 c80 -133 174 -232 296 -311 l67 -43 1523 0 1524 0 75 51 c122
    84 219 188 288 310 l32 57 -3 145 -3 145 -90 -54 c-255 -154 -527 -255 -845
    -315 -110 -21 -155 -23 -385 -24 -230 0 -275 3 -390 24 -149 26 -285 65 -500
    142 -130 46 -160 53 -226 54 -76 0 -77 0 -240 -82 -201 -101 -282 -124 -465
    -131 -117 -4 -135 -2 -177 16 -84 37 -66 71 112 216 119 97 216 262 215 366
    -1 68 -13 92 -105 205 -189 234 -309 482 -371 765 -20 92 -22 133 -22 335 0
    200 3 243 22 331 107 492 417 920 887 1226 l89 58 -506 0 -506 0 -60 -45z"/>
    <path d="M2717 2829 c-15 -11 -31 -37 -37 -57 -8 -25 -10 -189 -8 -504 l3
    -468 28 -27 c23 -24 36 -28 79 -27 43 0 55 5 75 28 l24 28 -3 500 -3 500 -28
    24 c-36 31 -94 32 -130 3z"/>
    <path d="M1110 2757 c-28 -14 -55 -76 -47 -109 4 -13 13 -32 21 -43 13 -19 29
    -20 224 -25 l210 -5 -229 -330 c-228 -329 -229 -330 -229 -383 0 -63 24 -94
    86 -111 52 -15 573 -15 611 0 52 19 73 48 73 99 0 37 -5 51 -26 71 -25 24 -30
    24 -244 29 l-218 5 226 320 c211 300 226 323 230 371 5 62 -9 91 -53 110 -47
    19 -597 20 -635 1z"/>
    <path d="M2111 2514 c-216 -76 -312 -342 -210 -580 72 -170 299 -241 453 -144
    30 19 46 25 46 17 0 -8 12 -24 26 -38 20 -18 36 -24 69 -23 51 1 73 16 92 61
    20 49 19 610 -2 658 -26 64 -116 72 -167 16 l-26 -29 -19 20 c-48 55 -170 74
    -262 42z m199 -213 c40 -27 75 -107 75 -171 -1 -68 -35 -144 -79 -172 -41 -25
    -135 -21 -167 8 -106 96 -77 317 47 354 38 11 92 3 124 -19z"/>
    <path d="M3205 2512 c-152 -52 -227 -142 -256 -304 -23 -130 18 -281 98 -363
    162 -163 487 -115 585 87 70 146 59 297 -31 441 -79 123 -259 186 -396 139z
    m185 -211 c43 -30 63 -84 63 -170 0 -129 -47 -191 -143 -191 -83 0 -136 55
    -155 162 -9 48 18 140 53 179 44 49 127 59 182 20z"/>
  </g>
</symbol>
</defs>
</svg>
